<?xml version="1.0" encoding="UTF-8" standalone="no"?>
<!DOCTYPE svg PUBLIC "-//W3C//DTD SVG 1.1//EN" "http://www.w3.org/Graphics/SVG/1.1/DTD/svg11.dtd">
<svg xmlns="http://www.w3.org/2000/svg">
<metadata>
<json>
{
	"fontFamily": "Stroke-Gap-Icons",
	"majorVersion": 1,
	"minorVersion": 0,
	"version": "Version 1.0",
	"fontId": "Stroke-Gap-Icons",
	"psName": "Stroke-Gap-Icons",
	"subFamily": "Regular",
	"fullName": "Stroke-Gap-Icons",
	"description": "Generated by IcoMoon"
}
</json>
</metadata>
<defs>
<font id="Stroke-Gap-Icons" horiz-adv-x="512">
<font-face units-per-em="512" ascent="480" descent="-32"/>
<missing-glyph horiz-adv-x="512"/>
<glyph unicode=" " d="" horiz-adv-x="256"/>
<glyph unicode="" d="M256-32c-141.152 0-256 114.848-256 256s114.848 256 256 256 256-114.848 256-256-114.848-256-256-256zM256 448c-123.52 0-224-100.48-224-224s100.48-224 224-224 224 100.48 224 224-100.48 224-224 224zM280.72 23.056l22.448 143.6-104.304 52.4 62.288 76.88-21.856 7.76-84.736-19.44-51.648 39.504 19.424 25.408 39.728-30.352 79.168 18.176 73.248-26.048-65.728-81.136 89.632-45.024-12.48-79.84 57.488 50.128 32.448 120.768 30.912-8.304-34.992-130.176zM167.616 77.168l-31.408 6.16 10.64 54.24-64.688 6.512 3.2 31.84 99.664-10.048z"/>
<glyph unicode="" d="M224.096 32.032c-65.552 0-131.104 24.96-181.008 74.848l22.624 22.624c87.344-87.328 229.456-87.296 316.8 0 87.328 87.36 87.328 229.472 0 316.784l22.624 22.624c99.808-99.776 99.808-262.192 0-362.032-49.92-49.888-115.472-74.848-181.040-74.848zM224 96c-105.872 0-192 86.128-192 192s86.128 192 192 192 192-86.128 192-192-86.144-192-192-192zM224 448c-88.24 0-160-71.776-160-160s71.776-160 160-160 160 71.776 160 160-71.776 160-160 160zM144 0h160v-32h-160v32zM231.104 148.544l16.24 113.488-68.864 37.84 39.696 53.52-6.352 2.464-55.792-13.984-35.712 29.84 20.528 24.576 23.2-19.408 49.872 12.512 54.944-21.344-42.832-57.792 56.128-30.848-6.288-43.952 23.968 22.848 20.608 83.856 31.088-7.632-22.864-92.944zM171.648 200.64l-31.504 5.664 6.032 33.472-35.936 3.968 3.504 31.824 70-7.728z"/>
<glyph unicode="" d="M512 320h-512v96h512v-96zM32 352h448v32h-448v-32zM304 31.84h-96v32.16c0 79.392-64.592 144-144 144h-64v79.952h32v-47.952h32c97.040 0 176-78.96 176-176v-0.16l32 0.16c0 97.040 78.96 176 176 176h32v47.952h32v-79.952h-64c-79.408 0-144-64.608-144-144v-32.16z"/>
<glyph unicode="" d="M415.92-32h-320v320h32v-288h256v288h32zM16 238.4l-16.96 169.568 107.872 72.032h100.848v-16c0-26.464 21.536-48 48-48s48 21.536 48 48v16h100.832l108.336-72-16.544-169.568-31.84 3.104 14.672 150.464-84.272 56h-60.784c-7.44-36.464-39.76-64-78.4-64s-70.96 27.536-78.384 64h-60.752l-83.824-55.968 15.040-150.432-31.84-3.2z"/>
<glyph unicode="" d="M464 368h-416v96h416v-96zM80 400h352v32h-352v-32zM123.344 207.744l-69.168 1.552 0.72 31.984 45.6-1.024 28.368 84.816 30.336-10.144zM497.68-16h-189.216l-52.464 157.088-52.48-157.088h-189.2l33.76 337.6 31.84-3.2-30.24-302.4h130.8l75.52 226.096 75.536-226.096h130.784l-30.24 302.4 31.84 3.2zM388.64 207.744l-35.84 107.184 30.336 10.144 28.384-84.816 45.584 1.024 0.72-31.984z"/>
<glyph unicode="" d="M348.496 320h-168.992l-40 160h248.992l-40-160zM204.496 352h119.008l24 96h-167.008l24-96zM256-34.432l-129.952 74.256 50.272 251.312 31.36-6.272-45.728-228.688 94.048-53.744 94.72 54.128-30.576 229.328 31.712 4.224 33.424-250.672zM301.361 159.769l5.267-31.565-96.005-16.020-5.267 31.565 96.005 16.020zM301.359 95.765l5.267-31.565-96.005-16.020-5.267 31.565 96.005 16.020zM301.363 223.771l5.267-31.565-96.005-16.020-5.267 31.565 96.005 16.020z"/>
<glyph unicode="" d="M256-32c-141.152 0-256 114.848-256 256s114.848 256 256 256 256-114.848 256-256-114.848-256-256-256zM256 448c-123.52 0-224-100.48-224-224s100.48-224 224-224 224 100.48 224 224-100.48 224-224 224zM272 32h-32c0 97.040-78.96 176-176 176v32c114.688 0 208-93.312 208-208zM448 208c-114.688 0-208 93.312-208 208h32c0-97.040 78.96-176 176-176v-32z"/>
<glyph unicode="" d="M224.198 210.423l31.625-4.877-32.072-207.986-31.625 4.877 32.072 207.986zM303.678 243.147l47.996-240.004-31.379-6.275-47.996 240.004 31.379 6.275zM91.088 187.536l-43.792 120.272 348.752 125.312 43.776-120.304-348.736-125.28zM88.352 288.544l21.904-60.144 288.512 103.664-21.888 60.144-288.528-103.664zM469.872 323.856l-10.928 30.064c8.016 2.928 14.432 8.8 18.048 16.544s4 16.432 1.072 24.432c-2.928 8.064-8.8 14.464-16.544 18.080-7.744 3.632-16.432 3.984-24.464 1.072l-10.944 30.064c16.064 5.872 33.44 5.072 48.928-2.128 15.504-7.232 27.248-20.064 33.088-36.144 5.84-16.048 5.088-33.424-2.144-48.912-7.216-15.472-20.048-27.232-36.112-33.072zM48.064 188.352c-19.616 0-38.064 12.112-45.152 31.584-9.040 24.896 3.824 52.48 28.688 61.52l10.944-30.064c-4-1.472-7.2-4.384-9.008-8.288-1.808-3.872-2-8.224-0.544-12.24 3.024-8.288 12.224-12.528 20.512-9.568l10.944-30.064c-5.424-1.952-10.944-2.88-16.384-2.88z"/>
<glyph unicode="" d="M256-32c-141.152 0-256 114.848-256 256s114.848 256 256 256 256-114.848 256-256-114.848-256-256-256zM256 448c-123.52 0-224-100.48-224-224s100.48-224 224-224 224 100.48 224 224-100.48 224-224 224zM352 128h-192v128h32v-96h160zM352 192h-32v96h-160v32h192z"/>
<glyph unicode="" d="M376.224 208.464l-22.624 22.624 126.4 126.384v90.528h-90.528l-126.384-126.4-22.624 22.624 135.76 135.776h135.776v-135.776zM290.256 18.784l-239.472 239.472 164.304 58.416 10.72-30.16-116.592-41.456 167.84-167.84 41.456 116.576 30.16-10.72zM0.464-31.536l81.12 182.384 29.248-13.008-47.296-106.304 106.32 47.28 13.008-29.248zM260.411 251.411l22.998-22.25-88.776-91.763-22.999 22.25 88.776 91.763z"/>
<glyph unicode="" d="M336-32h-160v352h32v-320h96v320h32zM464 32h-96v32h64v58.848l-77.040 124.768 27.216 16.8 81.824-132.48zM144 32h-96v99.936l81.824 132.48 27.216-16.8-77.040-124.768v-58.848h64zM240 256h32v-224h-32v224zM307.504 358l-51.504 64.384-51.504-64.384-24.992 20 76.496 95.616 76.496-95.616z"/>
<glyph unicode="" d="M472-32h-432v512h432v-512zM72 0h368v448h-368v-448zM248 32c-70.576 0-128 57.424-128 128s57.424 128 128 128 128-57.424 128-128-57.424-128-128-128zM248 256c-52.944 0-96-43.056-96-96s43.056-96 96-96 96 43.056 96 96-43.056 96-96 96zM248 320c-26.464 0-48 21.536-48 48s21.536 48 48 48 48-21.536 48-48-21.536-48-48-48zM248 384c-8.816 0-16-7.168-16-16s7.184-16 16-16 16 7.168 16 16-7.184 16-16 16zM216 160h-32c0 35.296 28.704 64 64 64v-32c-17.648 0-32-14.352-32-32z"/>
<glyph unicode="" d="M512-32h-512v512h512v-512zM32 0h448v448h-448v-448zM256 48c-97.040 0-176 78.96-176 176s78.96 176 176 176 176-78.96 176-176-78.96-176-176-176zM256 368c-79.392 0-144-64.592-144-144s64.608-144 144-144 144 64.592 144 144-64.608 144-144 144zM208 224h-32c0 44.112 35.888 80 80 80v-32c-26.464 0-48-21.536-48-48zM416 416h32v-32h-32v32zM64 416h32v-32h-32v32zM416 64h32v-32h-32v32zM64 64h32v-32h-32v32z"/>
<glyph unicode="" d="M307.264 144h-102.576l-31.36 99.776 82.736 61.744 82.608-62.464-31.408-99.056zM228.192 176h55.648l17.504 55.168-45.392 34.336-45.264-33.776 17.504-55.728zM255.872 333.136l-73.168 52.24 18.592 26.048 54.832-39.136 54.736 38.064 18.272-26.272zM441.44 218.704l-79.088 41.312 12.4 89.056 31.68-4.4-9.264-66.736 59.088-30.88zM328.256 27.088l-30.256 10.416 29.008 84.368 89.952 1.072 0.368-32-67.376-0.816zM64.528 218.704l-14.816 28.352 59.088 30.88-9.264 66.736 31.68 4.4 12.4-89.056zM177.712 27.088l-21.696 63.040-67.376 0.816 0.368 32 89.952-1.072 29.008-84.368zM256-32c-141.152 0-256 114.848-256 256s114.848 256 256 256 256-114.848 256-256-114.848-256-256-256zM256 448c-123.52 0-224-100.48-224-224s100.48-224 224-224 224 100.48 224 224-100.48 224-224 224z"/>
<glyph unicode="" d="M512 128h-512v73.664l103.52 54.432 14.896-28.32-86.416-45.44v-22.336h448v192h-148.464l-12.368-37.056-30.336 10.112 19.632 58.944h203.536zM137.373 313.385l64.001-64.001-22.627-22.627-64.001 64.001 22.627 22.627zM217.371 329.385l64.001-64.001-22.627-22.627-64.001 64.001 22.627 22.627zM0 96h512v-32h-512v32z"/>
<glyph unicode="" d="M144-32c-52.944 0-96 43.056-96 96s43.056 96 96 96 96-43.056 96-96-43.056-96-96-96zM144 128c-35.296 0-64-28.704-64-64s28.704-64 64-64 64 28.704 64 64-28.704 64-64 64zM368-32c-52.944 0-96 43.056-96 96s43.056 96 96 96 96-43.056 96-96-43.056-96-96-96zM368 128c-35.296 0-64-28.704-64-64s28.704-64 64-64 64 28.704 64 64-28.704 64-64 64zM141.492 472.609l111.994-175.743-26.986-17.197-111.994 175.744 26.986 17.197zM370.462 472.485l27.123-16.983-110.029-175.731-27.123 16.983 110.029 175.731zM256 160c-26.464 0-48 21.536-48 48s21.536 48 48 48 48-21.536 48-48c0-26.464-21.536-48-48-48zM256 224c-8.816 0-16-7.184-16-16s7.184-16 16-16 16 7.168 16 16-7.184 16-16 16z"/>
<glyph unicode="" d="M393.408 112.48l-22.624 22.624 56.56 56.56-67.904 67.904 22.624 22.624 90.528-90.528zM246.32-34.592l-248.912 248.912 226.272 226.256 90.512-90.496-22.624-22.624-67.888 67.872-181.024-181.008 203.664-203.664 56.56 56.576 22.624-22.624zM415.808 288.032c-4.432 0-8.896 0.32-13.328 0.944l4.464 31.68c19.952-2.848 40.192 3.968 54.336 18.112 12.080 12.080 18.736 28.144 18.736 45.248s-6.656 33.168-18.736 45.248c-24.176 24.192-66.352 24.16-90.528 0-14.128-14.128-20.896-34.432-18.096-54.336l-31.68-4.448c-4.192 29.776 5.952 60.224 27.152 81.408 18.144 18.128 42.24 28.112 67.904 28.112s49.76-10 67.872-28.112c37.424-37.424 37.424-98.32 0-135.744-18.048-18.064-42.784-28.112-68.096-28.112zM269.152 73.072c-25.312 0-50.048 10.048-68.096 28.096-37.424 37.424-37.424 98.336 0 135.76 37.408 37.424 98.32 37.424 135.744 0 21.232-21.232 31.376-51.68 27.152-81.456l-31.68 4.496c2.832 19.872-3.936 40.176-18.096 54.336-24.944 24.96-65.568 24.96-90.496 0-24.96-24.96-24.96-65.568 0-90.512 14.144-14.144 34.464-20.896 54.336-18.096l4.464-31.68c-4.432-0.624-8.88-0.944-13.328-0.944z"/>
<glyph unicode="" d="M512 64h-96v32h64v256h-448v-256h64v-32h-96v320h512zM384-32h-256v192h32v-160h192v160h32zM64 320h32v-32h-32v32zM128 320h32v-32h-32v32zM383.984 416h-32v32h-192v-32h-32v64h256zM192 64h144v-32h-144v32zM192 128h144v-32h-144v32z"/>
<glyph unicode="" d="M256-32c-141.152 0-256 114.848-256 256s114.848 256 256 256 256-114.848 256-256-114.848-256-256-256zM256 448c-123.52 0-224-100.48-224-224s100.48-224 224-224 224 100.48 224 224-100.48 224-224 224zM256 64c-88.224 0-160 71.776-160 160s71.776 160 160 160 160-71.776 160-160-71.776-160-160-160zM256 352c-70.576 0-128-57.424-128-128s57.424-128 128-128 128 57.424 128 128-57.424 128-128 128zM256 208c-30.88 0-56 25.12-56 56s25.12 56 56 56 56-25.12 56-56-25.12-56-56-56zM256 288c-13.232 0-24-10.768-24-24s10.768-24 24-24 24 10.768 24 24-10.768 24-24 24zM256 128c-30.88 0-56 25.12-56 56s25.12 56 56 56 56-25.12 56-56-25.12-56-56-56zM256 208c-13.232 0-24-10.768-24-24s10.768-24 24-24 24 10.768 24 24-10.768 24-24 24z"/>
<glyph unicode="" d="M352 96.24h-32v240h-128v-240h-32v272h192zM512-15.76h-512v288h128v-32h-96v-224h448v160h-96v32h128zM240 464.24h32v-64h-32v64zM32 368.24h32v-64h-32v64zM96 368.24h32v-64h-32v64zM384 304.24h32v-64h-32v64zM432 304.24h32v-64h-32v64zM480 304.24h32v-64h-32v64z"/>
<glyph unicode="" d="M256-32c-141.152 0-256 114.848-256 256s114.848 256 256 256 256-114.848 256-256-114.848-256-256-256zM256 448c-123.52 0-224-100.48-224-224s100.48-224 224-224 224 100.48 224 224-100.48 224-224 224zM192 115.12v140.88h32v-83.12l80.512 50.304-120.288 66.832 15.552 27.968 167.712-93.168z"/>
<glyph unicode="" d="M256 64.88c-97.040 0-176 78.96-176 176s78.96 176 176 176 176-78.96 176-176-78.96-176-176-176zM256 384.88c-79.408 0-144-64.592-144-144s64.592-144 144-144 144 64.592 144 144-64.592 144-144 144zM27.104-14.352c-7.888 0-14.448 2.208-19.296 7.040-12.928 12.944-18.48 39.952 53.728 134.912l25.472-19.376c-43.056-56.624-52.48-81.904-54.48-91.12 28.528 5.104 126.512 72.768 250.496 196.752 124 124 191.664 222 196.752 250.512-9.328-2.016-35.12-11.648-93.248-56.128l-19.44 25.408c96.656 74 124.048 68.512 137.104 55.408 47.248-47.248-157.088-256.384-198.544-297.824-37.184-37.2-209.424-205.584-278.544-205.584z"/>
<glyph unicode="" d="M256-32c-141.152 0-256 114.848-256 256s114.848 256 256 256 256-114.848 256-256-114.848-256-256-256zM256 448c-123.52 0-224-100.48-224-224s100.48-224 224-224 224 100.48 224 224-100.48 224-224 224zM208 304h32v-160h-32v160zM272 304h32v-160h-32v160z"/>
<glyph unicode="" d="M256-32c-141.152 0-256 114.848-256 256s114.848 256 256 256 256-114.848 256-256-114.848-256-256-256zM256 448c-123.52 0-224-100.48-224-224s100.48-224 224-224 224 100.48 224 224-100.48 224-224 224zM224 115.12v140.88h32v-83.12l80.512 50.304-120.272 66.832 15.52 27.968 167.728-93.168zM160 304h32v-192h-32v192z"/>
<glyph unicode="" d="M160-16c-52.944 0-96 43.056-96 96s43.056 96 96 96 96-43.056 96-96-43.056-96-96-96zM160 144c-35.296 0-64-28.704-64-64s28.704-64 64-64 64 28.704 64 64-28.704 64-64 64zM256 80h-32v298.672l224 93.328v-195.312l-146.416-51.76-10.656 30.144 125.072 44.24v124.688l-160-66.672z"/>
<glyph unicode="" d="M384 0c-52.944 0-96 43.056-96 96s43.056 96 96 96 96-43.056 96-96-43.056-96-96-96zM384 160c-35.296 0-64-28.704-64-64s28.704-64 64-64 64 28.704 64 64-28.704 64-64 64zM128-32c-52.944 0-96 43.056-96 96s43.056 96 96 96 96-43.056 96-96-43.056-96-96-96zM128 128c-35.296 0-64-28.704-64-64s28.704-64 64-64 64 28.704 64 64-28.704 64-64 64zM224 64h-32v298.784l265.616 115.888 12.768-29.344-246.384-107.488zM448 400h32v-304h-32v304z"/>
<glyph unicode="" d="M80 480h32v-128h-32v128zM80 160h32v-192h-32v192zM96 192c-35.296 0-64 28.704-64 64s28.704 64 64 64 64-28.704 64-64-28.704-64-64-64zM96 288c-17.648 0-32-14.352-32-32s14.352-32 32-32 32 14.352 32 32-14.352 32-32 32zM240 480h32v-256h-32v256zM240 32h32v-64h-32v64zM256 64c-35.296 0-64 28.704-64 64s28.704 64 64 64 64-28.704 64-64-28.704-64-64-64zM256 160c-17.648 0-32-14.352-32-32s14.352-32 32-32 32 14.352 32 32-14.352 32-32 32zM400 480h32v-64h-32v64zM400 224h32v-256h-32v256zM416 256c-35.296 0-64 28.704-64 64s28.704 64 64 64 64-28.704 64-64-28.704-64-64-64zM416 352c-17.648 0-32-14.352-32-32s14.352-32 32-32 32 14.352 32 32-14.352 32-32 32z"/>
<glyph unicode="" d="M53.504-32c-14.304 0-27.728 5.568-37.84 15.664-20.848 20.848-20.848 54.768 0 75.648l22.624-22.624c-8.368-8.368-8.368-22.016 0-30.384 4.048-4.064 9.456-6.304 15.216-6.304v0c5.728 0 11.12 2.24 15.168 6.288l22.656-22.592c-10.096-10.112-23.52-15.696-37.792-15.696-0.016 0-0.032 0-0.032 0zM368 192c-79.408 0-144 64.592-144 144s64.592 144 144 144 144-64.592 144-144-64.592-144-144-144zM368 448c-61.744 0-112-50.256-112-112s50.256-112 112-112 112 50.256 112 112-50.256 112-112 112zM401.936 369.936c-18.096 18.096-49.776 18.096-67.872 0l-22.624 22.624c15.088 15.104 35.168 23.424 56.56 23.424s41.472-8.336 56.56-23.424l-22.624-22.624zM285.008 123.872l-125.264 125.248 13.024 64.992 31.376-6.288-9.648-48.192 101.008-101.008 48.192 9.648 6.288-31.376zM131.792-5.424l-101.36 101.344 134.176 168.416 25.040-19.936-116.368-146.064 60.928-60.912 146.080 116.336 19.936-25.024z"/>
<glyph unicode="" d="M256-32c-70.576 0-128 57.424-128 128s57.424 128 128 128 128-57.424 128-128-57.424-128-128-128zM256 192c-52.944 0-96-43.056-96-96s43.056-96 96-96 96 43.056 96 96-43.056 96-96 96zM224 96h-32c0 35.296 28.704 64 64 64v-32c-17.648 0-32-14.352-32-32zM277.056 256.816l-10.112 30.368 130.592 43.52-13.536 69.296v48h-256l-0.32-51.136-13.216-66.16 130.592-43.52-10.112-30.368-157.408 52.48 18.464 92.288v78.416h320v-78.416l18.464-92.288zM192 416h32v-64h-32v64zM288 416h32v-64h-32v64z"/>
<glyph unicode="" d="M256 352c-35.296 0-64 28.704-64 64s28.704 64 64 64c35.296 0 64-28.704 64-64s-28.704-64-64-64zM256 448c-17.648 0-32-14.352-32-32s14.352-32 32-32c17.648 0 32 14.352 32 32s-14.352 32-32 32zM159.984 143.104l-31.968 1.792 8.384 150.8 61.184 52.448 20.832-24.288-50.816-43.552zM352.032 143.104l-7.632 137.2-50.8 43.552 20.8 24.288 61.2-52.448 8.368-150.8zM302.48-32h-92.96l-17.44 174.4-0.080 97.6h32v-96l14.464-144h35.056l14.56 145.6-0.080 94.4h32v-96z"/>
<glyph unicode="" d="M256-32c-97.040 0-176 78.96-176 176v175.712h32v-175.712c0-79.392 64.592-144 144-144s144 64.608 144 144v175.712h32v-175.712c0-97.040-78.96-176-176-176zM256 64.096c-44.112 0-80 35.84-80 79.904v176h32v-176c0-26.416 21.536-47.904 48-47.904s48 21.568 48 48.064v175.84h32v-175.84c0-44.16-35.888-80.064-80-80.064zM208 352h-128v128h128v-128zM112 384h64v64h-64v-64zM432 352h-128v128h128v-128zM336 384h64v64h-64v-64z"/>
<glyph unicode="" d="M167.68 256h-39.68v32h24.32l55.68 69.616v58.384c0 35.296 28.704 64 64 64s64-28.704 64-64h-32c0 17.648-14.352 32-32 32s-32-14.352-32-32v-69.616l-72.32-90.384zM444.992-32l-177.392 0.624-109.84 31.376h-29.76v32l36.4-0.624 109.84-31.376h145.728l56.384 227.040-172.352 31.088v157.872h32v-131.12l179.648-32.416zM96 0h-96v288h96v-288zM32 32h32v224h-32v-224z"/>
<glyph unicode="" d="M491.92 64h-471.12l-23.984 84.96 236.768 103.552 12.832-29.312-211.232-92.384 9.824-34.816h422.448l9.952 36.544-237.408 146.368v40.928h16c17.648 0 32 14.4 32 32.096 0 17.68-14.352 32.064-32 32.064s-32-14.288-32-31.824h-32c0 35.184 28.704 63.824 64 63.824s64-28.736 64-64.064c0-27.104-16.88-50.336-40.672-59.68l235.248-145.024-22.656-83.232z"/>
<glyph unicode="" d="M344 352c-35.296 0-64 28.704-64 64s28.704 64 64 64 64-28.704 64-64-28.704-64-64-64zM344 448c-17.648 0-32-14.352-32-32s14.352-32 32-32 32 14.352 32 32-14.352 32-32 32zM216-32c-79.408 0-144 64.592-144 144s64.592 144 144 144v-32c-61.744 0-112-50.256-112-112s50.256-112 112-112 112 50.256 112 112h32c0-79.408-64.592-144-144-144zM216 32c-44.112 0-80 35.888-80 80s35.888 80 80 80v-32c-26.464 0-48-21.536-48-48s21.536-48 48-48 48 21.536 48 48h32c0-44.112-35.888-80-80-80zM407.68-3.136l-31.36 6.272 28.16 140.864h-180.112l63.856 159.648-83.408-1.264-92.8-59.84-17.344 26.912 100.512 64.784 140.592 2.112-64.144-160.352h171.888z"/>
<glyph unicode="" d="M256-32c-141.152 0-256 114.848-256 256s114.848 256 256 256 256-114.848 256-256-114.848-256-256-256zM256 448c-123.52 0-224-100.48-224-224s100.48-224 224-224 224 100.48 224 224-100.48 224-224 224zM128 115.12v140.88h32v-83.12l80.512 50.304-120.272 66.832 15.52 27.968 167.728-93.168zM240 115.12v44.88h11.408l101.104 63.184-120.272 66.832 15.52 27.968 167.728-93.168z"/>
<glyph unicode="" d="M163.488-32c-48.064 0-89.024 15.568-118.464 45.008-79.648 79.632-49.792 239.072 66.544 355.424 69.856 69.856 158.432 111.568 236.944 111.568 48.064 0 89.024-15.568 118.48-45.024 79.632-79.632 49.776-239.072-66.544-355.424-69.888-69.856-158.464-111.552-236.96-111.552zM348.512 448c-70.208 0-150.32-38.208-214.32-102.192-103.856-103.872-133.712-243.008-66.544-310.176 23.312-23.312 56.448-35.632 95.84-35.632 70.208 0 150.336 38.192 214.336 102.176 103.84 103.872 133.696 243.008 66.544 310.176-23.328 23.312-56.464 35.648-95.856 35.648zM357.827 348.451l22.627-22.627-226.284-226.284-22.627 22.627 226.284 226.284zM143.984 192h128.032v-32h-128.032v32zM192 240h32v-128h-32v128zM239.984 288h128.032v-32h-128.032v32zM288 336h32v-128h-32v128z"/>
<glyph unicode="" d="M64 480h32v-512h-32v512zM211.008 129.296c-22.176 0-46.384 4.256-73.408 16.048l12.8 29.312c53.328-23.264 92.048-11.648 133.024 0.656 37.488 11.28 79.376 23.856 132.576 7.664v222.24c-48.4 17.904-84.88 6.992-123.392-4.544-42.608-12.816-90.944-27.312-155.008 0.672l12.8 29.312c53.328-23.264 92.048-11.648 133.024 0.656 42.608 12.8 90.912 27.312 154.976-0.64l9.6-4.208v-290.912l-22.384 9.76c-53.296 23.248-91.984 11.632-133.008-0.656-24.64-7.392-51.2-15.36-81.6-15.36z"/>
<glyph unicode="" d="M256 352c-35.296 0-64 28.704-64 64s28.704 64 64 64 64-28.704 64-64-28.704-64-64-64zM256 448c-17.648 0-32-14.352-32-32s14.352-32 32-32 32 14.352 32 32-14.352 32-32 32zM159.968 143.104l-31.936 1.792 8.368 150.8 61.2 52.448 20.8-24.288-50.8-43.552zM352.032 143.104l-7.632 137.2-50.8 43.552 20.8 24.288 61.2-52.448 8.368-150.8zM355.952 80h-199.904l36.32 163.472 31.264-6.944-27.68-124.528h120.096l-27.68 124.528 31.264 6.944zM302.512-32h-93.024l-7.616 78.016 31.84 3.088 4.8-49.104h34.976l4.928 50.608 31.856-3.088z"/>
<glyph unicode="" d="M272-32c-35.296 0-64 28.704-64 64v58.384l-55.68 69.616h-24.32v32h39.68l72.32-90.384v-69.616c0-17.648 14.352-32 32-32s32 14.352 32 32h32c0-35.296-28.704-64-64-64zM336 32h-32v157.376l13.152 2.864 159.2 28.72-56.384 227.040h-145.728l-114.24-32h-32v32h29.76l114.24 32h172.992l70.656-284.464-179.648-32.416zM96 160h-96v288h96v-288zM32 192h32v224h-32v-224z"/>
<glyph unicode="" d="M256-31.92c-53.264 0-106.528 20.272-147.072 60.832-81.104 81.104-81.104 213.056 0 294.16l22.624-22.624c-68.624-68.624-68.624-180.288 0-248.912s180.288-68.64 248.912 0c68.592 68.64 68.608 180.304 0 248.912l22.624 22.624c81.072-81.088 81.072-213.056 0-294.16-40.544-40.56-93.808-60.832-147.088-60.832zM255.968 250.704l-147.104 129.296 20.72 42.944 28.816-13.904-10.144-21.056 107.76-94.704 108.144 94.608-10.48 20.944 28.64 14.32 21.52-43.056zM144 480h224v-32h-224v32zM208 416h96v-32h-96v32z"/>
<glyph unicode="" d="M256 176c-79.392 0-144 64.608-144 144v160h288v-160c0-79.392-64.608-144-144-144zM144 448v-128c0-61.76 50.24-112 112-112s112 50.24 112 112v128h-224zM256 240c-44.112 0-80 35.888-80 80v80h32v-80c0-26.464 21.536-48 48-48v-32zM240 104h32v-120h-32v120zM112 0h288v-32h-288v32zM432 320v32c26.464 0 48 21.536 48 48v16h-48v32h80v-48c0-44.112-35.888-80-80-80zM80 320c-44.112 0-80 35.888-80 80v48h80v-32h-48v-16c0-26.464 21.536-48 48-48v-32zM256 80c-35.296 0-64 28.704-64 64h32c0-17.648 14.352-32 32-32s32 14.352 32 32h32c0-35.296-28.704-64-64-64z"/>
<glyph unicode="" d="M0 48h512v-32h-512v32zM386.304 168.416l-130.176 216.352-127.712-215.92-27.52 16.304 154.976 262.080 157.824-262.304zM512 80h-512v319.312l136.032-98.336-18.752-25.952-85.28 61.664v-224.688h448v224.688l-85.28-61.664-18.752 25.952 136.032 98.336z"/>
<glyph unicode="" d="M400 240c-61.744 0-112 50.24-112 112h32c0-44.112 35.888-80 80-80s80 35.888 80 80-35.888 80-80 80h-288c-44.112 0-80-35.888-80-80s35.888-80 80-80 80 35.888 80 80h32c0-61.76-50.256-112-112-112s-112 50.24-112 112 50.256 112 112 112h288c61.744 0 112-50.24 112-112s-50.256-112-112-112zM224 272h64v-32h-64v32zM96 208h32v-224h-32v224zM192 208h32v-224h-32v224zM288 208h32v-224h-32v224zM384 208h32v-224h-32v224zM97.104 352h-32c0 26.464 21.536 48 48 48v-32c-8.816 0-16-7.184-16-16zM385.104 352h-32c0 26.464 21.536 48 48 48v-32c-8.816 0-16-7.184-16-16z"/>
<glyph unicode="" d="M448 160v32c17.648 0 32 14.352 32 32s-14.352 32-32 32v32c35.296 0 64-28.704 64-64s-28.704-64-64-64zM416 80h-288v32h256v224h-256v32h288zM96 80h-96v288h96v-288zM32 112h32v224h-32v-224z"/>
<glyph unicode="" d="M512 112h-32v256h-448v-256h-32v288h512zM512 48h-104l-48 64h-208l-48-64h-104v32h88l48 64h240l48-64h88zM160 80h192v-32h-192v32zM336 176l-1.456 0.064-176 16c-0.032 0-0.080 0-0.112 0-33.792 0-62.432 28.688-62.432 63.936 0 35.296 28.704 64 64 64l174.544 15.936c0.048 0 0.096 0 0.128 0 45.52 0 81.328-35.856 81.328-79.936 0-44.112-35.888-80-80-80zM336 304l-174.56-15.936c-19.088-0.064-33.44-14.416-33.44-32.064s14.352-32 32-32l176.672-16c26.16 0.352 47.328 21.744 47.328 48 0 26.464-21.536 48-48 48zM160 272h32v-32h-32v32zM320 272h32v-32h-32v32z"/>
<glyph unicode="" d="M256-32c-88.224 0-160 71.776-160 160s71.776 160 160 160 160-71.776 160-160-71.776-160-160-160zM256 256c-70.576 0-128-57.424-128-128s57.424-128 128-128 128 57.424 128 128-57.424 128-128 128zM192 128h-32c0 52.944 43.056 96 96 96v-32c-35.296 0-64-28.704-64-64zM304 320h-32v32h-32v-32h-32v64h96zM240 432h32v-64h-32v64zM272 432h-32c0 26.464 21.536 48 48 48v-32c-8.832 0-16-7.168-16-16z"/>
<glyph unicode="" d="M144 416h32v-304h-32v304zM272.005 416.007l0.229-208.096-32-0.035-0.229 208.096 32 0.035zM272 416h-32c0 17.648-14.352 32-32 32s-32-14.352-32-32h-32c0 35.296 28.704 64 64 64s64-28.704 64-64zM414.368-32h-278.368l-72 96v118.624l36.688 36.688 22.624-22.624-27.312-27.312v-94.704l56-74.672h234.56l27.856 197.904-164.592 67.232 12.112 29.632 187.648-76.672z"/>
<glyph unicode="" d="M448 160v32c17.648 0 32 14.352 32 32s-14.352 32-32 32v32c35.296 0 64-28.704 64-64s-28.704-64-64-64zM416 80h-288v32h256v224h-256v32h288zM239.799 307.065l31.405-6.141-31.53-161.248-31.405 6.141 31.53 161.248zM159.8 307.065l31.405-6.141-31.53-161.248-31.405 6.141 31.53 161.248zM319.797 307.064l31.405-6.141-31.53-161.248-31.405 6.141 31.53 161.248zM96 80h-96v288h96v-288zM32 112h32v224h-32v-224z"/>
<glyph unicode="" d="M256-32c-141.152 0-256 114.848-256 256s114.848 256 256 256 256-114.848 256-256-114.848-256-256-256zM256 448c-123.52 0-224-100.48-224-224s100.48-224 224-224 224 100.48 224 224-100.48 224-224 224zM272 32h-32c0 97.040-78.96 176-176 176v32c114.688 0 208-93.312 208-208zM448 208c-114.688 0-208 93.312-208 208h32c0-97.040 78.96-176 176-176v-32zM147.31 355.32l239.995-239.995-22.627-22.627-239.995 239.995 22.627 22.627zM364.69 355.32l22.627-22.627-239.995-239.995-22.627 22.627 239.995 239.995z"/>
<glyph unicode="" d="M316.592 352h-104.784l-35.648 20.064 15.68 27.872 28.352-15.936h87.216l28.112 17.568 16.96-27.136zM413.104 104h-297.008l-55.488 184.96 12.96 5.696c49.008 21.52 113.792 33.36 182.432 33.36s133.44-11.84 182.432-33.36l11.776-5.168-37.104-185.488zM139.904 136h246.992l26.832 134.224c-43.488 16.688-98.896 25.792-157.712 25.792-58.288 0-113.2-8.944-156.496-25.328l40.384-134.688zM160.304 179.408l-21.216 70.752 16.912 3.664c63.568 13.76 143.504 13.232 205.776-1.312l-7.28-31.152c-52.304 12.208-118.784 13.904-174.688 4.448l11.168-37.216-30.672-9.184zM176 72h160v-32h-160v32zM0 304h32v-160h-32v160zM256-32c-95.104 0-181.888 52.32-226.448 136.512l28.288 14.976c39.008-73.712 114.928-119.488 198.16-119.488 83.216 0 159.152 45.776 198.176 119.488l28.288-14.976c-44.592-84.192-131.36-136.512-226.464-136.512zM480 304h32v-160h-32v160zM454.176 328.512c-39.024 73.712-114.96 119.488-198.176 119.488-83.232 0-159.152-45.776-198.176-119.488l-28.272 14.976c44.56 84.192 131.344 136.512 226.448 136.512s181.872-52.32 226.448-136.512l-28.272-14.976z"/>
<glyph unicode="" d="M256 192c-105.872 0-192 86.128-192 192v96h384v-96c0-105.872-86.128-192-192-192zM96 448v-64c0-88.224 71.776-160 160-160s160 71.776 160 160v64h-320zM240 160h32v-192h-32v192zM112 0h288v-32h-288v32zM256 256c-70.576 0-128 57.424-128 128v16h32v-16c0-52.944 43.056-96 96-96v-32z"/>
<glyph unicode="" d="M304 224.016v32c26.464 0 48 21.536 48 48h32c0-44.112-35.888-80-80-80zM208 480h96v-32h-96v32zM304-32h-96c-44.112 0-80 35.888-80 80v128c0 26.144 12.608 49.392 32.048 64-19.44 14.608-32.048 37.856-32.048 64v32c0 44.112 35.904 80 80.032 80h96c44.096 0 79.968-35.872 79.968-79.984v-32.016h-32v32.016c0 26.464-21.52 47.984-47.968 47.984h-96c-26.48 0-48.032-21.536-48.032-48v-32c0-26.464 21.536-48 48-48v-32c-26.464 0-48-21.536-48-48v-128c0-26.464 21.536-48 48-48h96c26.464 0 48 21.536 48 48.016v127.984c0 26.464-21.536 48-48 48v32c44.112 0 80-35.888 80-80v-127.984c0-44.112-35.888-80.016-80-80.016zM224 304h-32c0 26.464 21.536 48 48 48v-32c-8.816 0-16-7.184-16-16zM240 31.904c-26.464 0-48 21.584-48 48.096v96h32v-96c0-8.88 7.184-16.096 16-16.096v-32z"/>
<glyph unicode="" d="M512-16h-512v320h32v-288h448v288.336h32zM0 335.984v128.016h512v-32h-480v-63.984l479.984 0.32 0.032-32zM448 96h-64c-35.296 0-64 28.704-64 64s28.704 64 64 64h64v-32h-64c-17.648 0-32-14.352-32-32s14.352-32 32-32h64v-32z"/>
<glyph unicode="" d="M135.264 234.56l-30.176 10.656c22.592 63.872 83.248 106.784 150.912 106.784v-32c-54.128 0-102.656-34.336-120.736-85.44zM240 480h32v-32h-32v32zM240 144h32v-128h-32v128zM224-32c-26.464 0-48 21.536-48 48h32c0-8.832 7.184-16 16-16s16 7.168 16 16h32c0-26.464-21.52-48-48-48zM480 176h-448v16c0 123.52 100.48 224 224 224 123.504 0 224-100.48 224-224v-16zM64.656 208h382.688c-8.16 98.4-90.864 176-191.344 176s-183.184-77.6-191.344-176z"/>
<glyph unicode="" d="M512-32h-512v384h512v-384zM32 0h448v320h-448v-320zM384 32h-320v256h320v-256zM96 64h256v192h-256v-192zM416 128h32v-32h-32v32zM416 64h32v-32h-32v32zM256 364.56l-136.512 85.904 17.024 27.072 119.488-75.168 119.488 75.168 17.024-27.072z"/>
<glyph unicode="" d="M207.904 95.6c-114.688 0-208 96-208 213.984v106.016h416v-106.016c0-118-93.296-213.984-208-213.984zM31.904 383.6v-74.016c0-100.336 78.96-181.984 176-181.984s176 81.648 176 181.984v74.016h-352zM208.096 159.6c-79.392 0-144 67.28-144 149.984v26.016h32v-26.016c0-65.056 50.24-117.984 112-117.984v-32zM464.096 255.6h-16.608v32h16.608c8.816 0 16 7.184 16 16v32c0 8.816-7.184 16-16 16h-16.608v32h16.608c26.464 0 48-21.536 48-48v-32.4c-0.224-26.288-21.68-47.6-48-47.6zM79.904 64.4h256v-32h-256v32z"/>
<glyph unicode="" d="M512 32h-447.984v32h415.984v320h-415.984v32h447.984zM0 416h32v-384h-32v384zM416 240h32v-32h-32v32zM384 96h-320v256h320v-256zM96 128h256v192h-256v-192z"/>
<glyph unicode="" d="M208-32v0c-44.112 0-80 35.888-80 80v240c0 70.576 57.424 128 128 128s128-57.424 128-128v-240c0-44.096-35.888-79.984-80-79.984l-96-0.016zM256 384c-52.944 0-96-43.056-96-96v-240c0-26.464 21.536-48 48-48l96 0.016c26.464 0 48 21.536 48 48v239.984c0 52.944-43.056 96-96 96zM223.936 48l-32 0.016 0.064 239.984c0 35.28 28.704 64 64 64v-32c-17.648 0-32-14.352-32-32l-0.064-240zM208 480h96v-32h-96v32z"/>
<glyph unicode="" d="M349.088-32h-186.848l-53.648 304h294.144l-53.648-304zM189.088 0h133.152l42.352 240h-217.856l42.352-240zM222.612 194.49l22.564-143.996-31.613-4.954-22.564 143.997 31.613 4.954zM399.664 304h-32c0 15.136-2.96 29.808-8.8 43.616l29.472 12.464c7.52-17.76 11.328-36.624 11.328-56.080zM143.664 304h-32c0 79.392 64.608 144 144 144 19.136 0 37.744-3.696 55.312-11.008l-12.288-29.552c-13.648 5.68-28.112 8.56-43.024 8.56-61.76 0-112-50.24-112-112zM207.664 304h-32c0 44.112 35.888 80 80 80v-32c-26.464 0-48-21.536-48-48zM370.625 472.273l27.389-16.547-96.668-160.005-27.389 16.547 96.668 160.006z"/>
<glyph unicode="" d="M384 160h-256v256h256v-256zM160 192h192v192h-192v-192zM160 352h64v-32h-64v32zM160 272h64v-32h-64v32zM288 352h64v-32h-64v32zM288 272h64v-32h-64v32zM342.624-32h-278.624v512h384v-400h-32v368h-320v-448h233.376l59.312 59.328 22.624-22.64z"/>
<glyph unicode="" d="M256-32c-35.296 0-64 28.704-64 64s28.704 64 64 64c35.296 0 64-28.704 64-64s-28.704-64-64-64zM256 64c-17.648 0-32-14.352-32-32s14.352-32 32-32c17.648 0 32 14.352 32 32s-14.352 32-32 32zM147.472 150.080l-22.624 22.624c68 68 178.672 68 246.624 0l-22.624-22.624c-55.52 55.52-145.856 55.488-201.376 0zM420.688 253.232c-90.816 90.752-238.592 90.784-329.376 0l-22.624 22.624c103.264 103.248 271.296 103.248 374.624 0l-22.624-22.624zM484.688 353.312c-126.128 126.032-331.312 126.032-457.376 0l-22.624 22.624c138.544 138.496 363.984 138.528 502.624 0l-22.624-22.624z"/>
<glyph unicode="" d="M362.784-31.584h-213.568l-37.712 306.24 58.304 108.928h172.4l58.304-108.928-37.728-306.24zM177.536 0.416h156.944l33.024 268.080-44.464 83.088h-134.080l-44.448-83.072 33.024-268.096zM211.148 231.266l20.539-181.903-31.815-3.592-20.539 181.903 31.815 3.592zM341.872 415.584h-32v32h-107.744v-32h-32v64h171.744zM176 287.584h160v-32h-160v32z"/>
<glyph unicode="" d="M512-32h-512v384h512v-384zM32 0h448v320h-448v-320zM176 48c-61.744 0-112 50.24-112 112s50.256 112 112 112 112-50.24 112-112-50.256-112-112-112zM176 240c-44.112 0-80-35.888-80-80s35.888-80 80-80 80 35.888 80 80-35.888 80-80 80zM160 160h-32c0 26.464 21.536 48 48 48v-32c-8.832 0-16-7.184-16-16zM320 240h128v-32h-128v32zM320 176h128v-32h-128v32zM320 112h128v-32h-128v32zM378.228 478.938l11.562-29.84-207.985-80.585-11.561 29.84 207.985 80.584z"/>
<glyph unicode="" d="M318.736 25.76l-29.472 12.48 160.624 379.648-379.648-160.624-12.48 29.472 452.352 191.376zM304-32c-167.632 0-304 136.368-304 304h32c0-149.984 122.016-272 272-272v-32zM160 144c-35.296 0-64 28.704-64 64s28.704 64 64 64 64-28.704 64-64-28.704-64-64-64zM160 240c-17.648 0-32-14.352-32-32s14.352-32 32-32 32 14.352 32 32-14.352 32-32 32zM304 208c-26.464 0-48 21.536-48 48s21.536 48 48 48 48-21.536 48-48-21.536-48-48-48zM304 272c-8.832 0-16-7.184-16-16s7.168-16 16-16 16 7.184 16 16-7.168 16-16 16zM240 48c-26.464 0-48 21.536-48 48s21.536 48 48 48 48-21.536 48-48-21.536-48-48-48zM240 112c-8.816 0-16-7.184-16-16s7.184-16 16-16 16 7.184 16 16-7.184 16-16 16z"/>
<glyph unicode="" d="M416 352h-320v128h320v-128zM128 384h256v64h-256v-64zM416-32h-320v352.768h32v-320.768h256v320.768h32zM240 64h32v-32h-32v32zM224 432h64v-32h-64v32zM112 128h288v-32h-288v32z"/>
<glyph unicode="" d="M512 32h-512v96h512v-96zM32 64h448v32h-448v-32zM480 160h-32v224h-384v-224h-32v256h448zM416 160h-32v160h-256v-160h-32v192h320z"/>
<glyph unicode="" d="M304.16-32h-224c-44.112 0-80 35.904-80 80.016v431.984h384v-431.984c0-44.112-35.888-80.016-80-80.016zM192.16 0h112c26.464 0 48 21.536 48 48.016v399.984h-320v-399.984c0-26.48 21.536-48.016 48-48.016h112zM464.16 192h-48.32v32h48.32c8.656 0 15.68 7.184 15.68 16v160c0 8.816-7.040 16-15.68 16h-48.32v32h48.32c26.304 0 47.68-21.536 47.68-48v-160.4c-0.208-26.288-21.52-47.6-47.68-47.6zM112.16 32c-26.464 0-48 21.536-48 48v336h32v-336c0-8.816 7.184-16 16-16v-32z"/>
<glyph unicode="" d="M272.016 96h-0.384c-17.088 0.096-33.136 6.864-45.152 19.008s-18.576 28.272-18.48 45.36c0.208 35.088 28.912 63.632 64 63.632 17.472-0.096 33.504-6.864 45.52-19.008s18.576-28.272 18.48-45.36c-0.208-35.088-28.912-63.632-63.984-63.632zM272.192 192c-17.728 0-32.080-14.272-32.192-31.808-0.048-8.544 3.232-16.592 9.248-22.672 6-6.096 14.016-9.472 22.576-9.52l0.208-16v16c17.536 0 31.872 14.272 31.984 31.808 0.048 8.544-3.232 16.592-9.248 22.672-6.016 6.096-14.032 9.472-22.576 9.52zM384 96c-0.144 0-0.272 0-0.4 0-17.088 0.112-33.12 6.88-45.12 19.040l22.784 22.464c6-6.080 14-9.456 22.544-9.52 0.064 0 0.144 0 0.208 0 8.464 0 16.448 3.28 22.48 9.248 6.096 6.016 9.472 14.032 9.52 22.576s-3.232 16.592-9.232 22.672-14.016 9.456-22.56 9.504c-8.896 0.432-16.608-3.216-22.688-9.232l-22.496 22.784c12.048 11.92 28 18.464 44.96 18.464 0.128 0 0.272 0 0.384 0 17.088-0.096 33.12-6.848 45.136-19.008 12-12.16 18.576-28.272 18.464-45.36-0.112-17.104-6.864-33.136-19.008-45.152-12.048-11.92-28.016-18.48-44.976-18.48zM512 32h-512v384h512v-384zM32 64h448v320h-448v-320zM64 320h384v-32h-384v32z"/>
<glyph unicode="" d="M400 288h-32v160h-224v-160h-32v192h288zM400-32h-288v288h288v-288zM144 0h224v224h-224v-224zM256 32c-44.112 0-80 35.888-80 80s35.888 80 80 80 80-35.888 80-80-35.888-80-80-80zM256 160c-26.464 0-48-21.536-48-48s21.536-48 48-48 48 21.536 48 48-21.536 48-48 48z"/>
<glyph unicode="" d="M256-30.88c-141.152 0-256 114.848-256 256 0 127.888 95.392 236.928 221.904 253.616l4.192-31.712c-110.656-14.624-194.096-110.016-194.096-221.904 0-123.52 100.48-224 224-224s224 100.48 224 224c0 111.888-83.44 207.28-194.096 221.888l4.192 31.712c126.512-16.672 221.904-125.712 221.904-253.6 0-141.152-114.848-256-256-256zM256 273.12c-26.464 0-48 21.536-48 48s21.536 48 48 48 48-21.536 48-48-21.536-48-48-48zM256 337.12c-8.816 0-16-7.168-16-16s7.184-16 16-16 16 7.168 16 16-7.184 16-16 16zM240 241.12h32v-160h-32v160z"/>
<glyph unicode="" d="M269.488 11.2l-226.112 226.432 195.744 195.712c30.080 30.096 70.048 46.672 112.544 46.672 42.736 0 82.992-16.72 113.328-47.056 30.24-30.224 46.928-70.352 47.008-112.992 0.064-42.672-16.528-82.816-46.752-113.024l-195.76-195.744zM88.624 237.616l180.896-181.152 173.12 173.104c24.16 24.16 37.424 56.24 37.376 90.352-0.048 34.096-13.424 66.208-37.632 90.4-24.32 24.304-56.528 37.68-90.704 37.68-33.936 0-65.872-13.248-89.92-37.296l-173.136-173.088zM167.792 226.272l-22.624 22.624 139.2 139.184c18 18.016 41.904 27.936 67.296 27.936 25.616 0 49.792-10.048 68.064-28.32l-22.608-22.64c-24.32 24.288-66.048 24.48-90.128 0.4l-139.2-139.184zM48-32c-12.288 0-24.576 4.672-33.936 14.032-9.072 9.072-14.064 21.152-14.064 33.984 0 12.832 5.008 24.88 14.080 33.936l87.728 87.744 22.624-22.624-87.744-87.76c-3.024-3.008-4.688-7.024-4.688-11.312 0-4.304 1.664-8.32 4.688-11.344 6.24-6.24 16.384-6.24 22.624 0l87.744 87.776 22.624-22.624-87.744-87.776c-9.344-9.36-21.648-14.032-33.936-14.032z"/>
<glyph unicode="" d="M283.824-32h-55.024l-67.84 186.528 30.080 10.944 60.16-165.472h8.976l60.528 196.704 30.592-9.408zM336 224c-52.944 0-96 43.056-96 96s43.056 96 96 96 96-43.056 96-96-43.056-96-96-96zM336 384c-35.296 0-64-28.704-64-64s28.704-64 64-64 64 28.704 64 64-28.704 64-64 64zM336 320h-32c0 17.648 14.352 32 32 32v-32zM176 272h-32c0 17.648 14.352 32 32 32v-32zM176 176c-52.944 0-96 43.056-96 96s43.056 96 96 96c12.688 0 24.992-2.416 36.592-7.216l-12.208-29.584c-7.712 3.184-15.904 4.8-24.384 4.8-35.296 0-64-28.704-64-64s28.704-64 64-64c19.44 0 37.616 8.672 49.856 23.824l24.896-20.112c-18.352-22.704-45.584-35.712-74.752-35.712zM177.088 395.824l-31.456 5.84c8.432 45.392 48.112 78.336 94.368 78.336 29.040 0 56.208-12.928 74.528-35.472l-24.832-20.192c-12.224 15.040-30.336 23.664-49.696 23.664-30.832 0-57.296-21.952-62.912-52.176z"/>
<glyph unicode="" d="M256 208c-79.408 0-144 64.592-144 144h32c0-61.744 50.256-112 112-112s112 50.256 112 112h32c0-79.408-64.592-144-144-144zM432 384h-352v96h352v-96zM112 416h288v32h-288v-32zM400 96h-32c0 61.744-50.256 112-112 112s-112-50.256-112-112h-32c0 79.408 64.592 144 144 144s144-64.592 144-144zM208 96h-32c0 44.112 35.888 80 80 80v-32c-26.464 0-48-21.536-48-48zM256 272c-44.112 0-80 35.888-80 80h32c0-26.464 21.536-48 48-48v-32zM432-32h-352v96h352v-96zM112 0h288v32h-288v-32z"/>
<glyph unicode="" d="M290.096-30.736l-4.192 31.712c110.656 14.624 194.096 110.016 194.096 221.904 0 123.52-100.48 224-224 224s-224-100.48-224-224c0-111.888 83.44-207.28 194.096-221.888l-4.192-31.712c-126.512 16.672-221.904 125.712-221.904 253.6 0 141.152 114.848 256 256 256s256-114.848 256-256c0-127.888-95.392-236.928-221.904-253.616zM272 177.6h-32v63.52h16c35.296 0 64 28.704 64 64s-28.704 64-64 64-64-28.704-64-64h-32c0 52.944 43.056 96 96 96s96-43.056 96-96c0-47.488-34.656-87.024-80-94.672v-32.848zM256 49.12c-26.464 0-48 21.536-48 48s21.536 48 48 48 48-21.536 48-48-21.536-48-48-48zM256 113.12c-8.816 0-16-7.168-16-16s7.184-16 16-16 16 7.168 16 16-7.184 16-16 16z"/>
<glyph unicode="" d="M112 208h144v-32h-144v32zM32 80h-32v64c0.064 2.112 7.248 160 192 160h64v-32h-64c-154.128 0-159.84-123.264-160.016-128.512l0.016-63.488zM272 82.112v93.888h-16v32h48v-66.112l147.152 98.112-147.152 98.112v-66.112h-48v32h16v93.888l236.848-157.888z"/>
<glyph unicode="" d="M112 0c-61.744 0-112 50.256-112 112s50.256 112 112 112 112-50.256 112-112-50.256-112-112-112zM112 192c-44.112 0-80-35.888-80-80s35.888-80 80-80 80 35.888 80 80-35.888 80-80 80zM96 112h-32c0 26.464 21.536 48 48 48v-32c-8.832 0-16-7.168-16-16zM384 112h-32c0 26.464 21.536 48 48 48v-32c-8.832 0-16-7.168-16-16zM400 0c-61.744 0-112 50.256-112 112s50.256 112 112 112 112-50.256 112-112-50.256-112-112-112zM400 192c-44.112 0-80-35.888-80-80s35.888-80 80-80 80 35.888 80 80-35.888 80-80 80zM208 128h96v-32h-96v32zM31.68 220.864l-31.36 6.272 31.696 158.544c0.912 34.528 29.264 62.32 63.984 62.32v-32c-17.648 0-32-14.352-32-32l-0.32-3.136-32-160zM480.32 220.864l-32.32 163.136c0 17.648-14.352 32-32 32v32c34.72 0 63.072-27.792 63.984-62.32l31.696-158.544-31.36-6.272z"/>
<glyph unicode="" d="M144 128h96v-32h-96v32zM176 160h32v-96h-32v96zM360.849 158.325l14.31-28.621-31.998-15.999-14.31 28.621 31.998 15.999zM312.85 110.322l14.31-28.621-31.998-15.999-14.31 28.621 31.998 15.999zM432 288h-32v160h-288v-160h-32v192h352zM368 288h-32v96h-160v-96h-32v128h224zM432-32h-352v288h352v-288zM112 0h288v224h-288v-224z"/>
<glyph unicode="" d="M176-32c-26.464 0-48 21.536-48 48v176h32v-176c0-8.816 7.184-16 16-16s16 7.184 16 16v384c0 26.464-21.536 48-48 48s-48-21.536-48-48v-208h-32v208c0 44.112 35.888 80 80 80s80-35.888 80-80v-384c0-26.464-21.536-48-48-48zM352-32c-26.464 0-48 21.536-48 48v249.376l-48 48v166.624h32v-153.376l48-48v-262.624c0-8.816 7.168-16 16-16s16 7.184 16 16v262.624l48 48v153.376h32v-166.624l-48-48v-249.376c0-26.464-21.536-48-48-48zM367.79 480.022l0.224-160-32-0.045-0.224 160 32 0.045z"/>
<glyph unicode="" d="M208 304h112v-32h-112v32zM144 208h-32l0.112 51.696c0.16 1.264 16.784 124.304 162.544 124.304h45.344v-32h-45.344c-113.152 0-129.152-85.152-130.656-95.296v-48.704zM320 202.992v101.008h32v-41.216l104.496 69.648-104.496 69.68v-50.112h-32v109.888l194.192-129.456zM464-16h-464v400h112v-32h-80v-336h400v208.864h32z"/>
<glyph unicode="" d="M480-32h-368v80h32v-48h304v448h-304v-48h-32v80h368zM176 66.112v93.888h-144v32h176v-66.112l147.152 98.112-147.152 98.112v-66.112h-176v32h144v93.888l236.848-157.888z"/>
<glyph unicode="" d="M371.168-32h-294.336l35.44 194.864 31.456-5.728-28.56-157.136h217.664l-28.56 157.136 31.456 5.728zM171.861 150.903l31.651-4.717-14.983-100.54-31.651 4.717 14.983 100.54zM336 192h-224v123.152l-45.888 68.848h269.888v-192zM144 224h160v128h-178.112l18.112-27.152v-100.848zM288 416h-32c0 17.648-14.352 32-32 32s-32-14.352-32-32h-32c0 35.296 28.704 64 64 64s64-28.704 64-64zM384 192h-16.608v32h16.608c8.832 0 16 7.184 16 16v64c0 8.816-7.168 16-16 16h-16.608v32h16.608c26.464 0 48-21.536 48-48v-64.4c-0.224-26.288-21.664-47.6-48-47.6z"/>
<glyph unicode="" d="M255.984-19.12c-47.008 0-91.2 18.32-124.432 51.568-68.608 68.608-68.608 180.272 0 248.912l22.624-22.624c-56.128-56.16-56.128-147.52 0-203.664 27.2-27.2 63.36-42.192 101.808-42.192 38.464 0 74.624 14.992 101.84 42.192 27.2 27.2 42.176 63.344 42.176 101.808 0 38.464-14.976 74.64-42.176 101.84l22.624 22.624c33.248-33.248 51.552-77.44 51.552-124.464 0-47.008-18.304-91.2-51.552-124.432-33.248-33.248-77.44-51.568-124.464-51.568zM176.816 77.696c-21.12 21.12-32.768 49.248-32.768 79.2s11.648 58.080 32.768 79.216l22.624-22.624c-15.072-15.088-23.392-35.184-23.392-56.592 0-21.392 8.32-41.488 23.392-56.576l-22.624-22.624zM322.432 314.64l-66.432 106.288-66.432-106.288-27.136 16.96 93.568 149.712 93.568-149.728z"/>
<glyph unicode="" d="M480-32h-448v128h32v-96h384v96h32zM256 83.152l-157.904 236.848h93.904v160h32v-192h-66.096l98.096-147.152 98.112 147.152h-66.112v192h32v-160h93.888z"/>
<glyph unicode="" d="M416 128h-416v256h416v-256zM32 160h352v192h-352v-192zM512 32h-416v64.432h32v-32.432h352v192h-32.208v32h64.208zM208 192c-35.296 0-64 28.704-64 64s28.704 64 64 64 64-28.704 64-64-28.704-64-64-64zM208 288c-17.648 0-32-14.352-32-32s14.352-32 32-32 32 14.352 32 32-14.352 32-32 32zM64 320h32v-32h-32v32zM64 224h32v-32h-32v32zM320 320h32v-32h-32v32zM320 224h32v-32h-32v32z"/>
<glyph unicode="" d="M512 64h-512v320h512v-320zM32 96h448v256h-448v-256zM256 128c-52.944 0-96 43.056-96 96s43.056 96 96 96 96-43.056 96-96-43.056-96-96-96zM256 288c-35.296 0-64-28.704-64-64s28.704-64 64-64 64 28.704 64 64-28.704 64-64 64zM64 320h64v-32h-64v32zM384 320h64v-32h-64v32zM384 160h64v-32h-64v32zM64 160h64v-32h-64v32z"/>
<glyph unicode="" d="M512 80h-208.256v32h176.256v288h-448v-288h177.216v-32h-209.216v352h512zM448 144h-384v224h384v-224zM96 176h320v160h-320v-160zM240 113.184h32v-33.184h-32v33.184zM159.408 48h193.184v-32h-193.184v32z"/>
<glyph unicode="" d="M416 352h-320c-35.296 0-64 28.704-64 64s28.704 64 64 64h320c35.296 0 64-28.704 64-64s-28.704-64-64-64zM96 448c-17.648 0-32-14.352-32-32s14.352-32 32-32h320c17.648 0 32 14.352 32 32s-14.352 32-32 32h-320zM272-32.064l-32 0.128 0.288 73.104-39.472 38.56 65.248 63.936-64.384 63.648 38.32 39.2v73.488h32v-86.512l-25.184-25.792 64.864-64.112-65.12-63.824 25.776-25.168z"/>
<glyph unicode="" d="M399.296-32h-286.592l-16.688 367.28 31.968 1.44 15.312-336.72h225.408l15.312 336.72 31.968-1.44zM64 400h384v-32h-384v32zM387.52 368h-263.040l22.4 112h218.24l22.4-112zM163.52 400h184.96l-9.6 48h-165.76l-9.6-48zM256 96c-35.296 0-64 28.704-64 64s28.704 64 64 64 64-28.704 64-64-28.704-64-64-64zM256 192c-17.648 0-32-14.352-32-32s14.352-32 32-32 32 14.352 32 32-14.352 32-32 32zM160 288h192v-32h-192v32zM160 64h192v-32h-192v32z"/>
<glyph unicode="" d="M0 0h512v-32h-512v32zM0 480h32v-512h-32v512zM112 32h32v-32h-32v32zM176 32h32v-32h-32v32zM240 32h32v-32h-32v32zM304 32h32v-32h-32v32zM368 32h32v-32h-32v32zM432 32h32v-32h-32v32zM32.016 96h32v-32h-32v32zM32.016 160h32v-32h-32v32zM32.016 224h32v-32h-32v32zM32.016 288h32v-32h-32v32zM32.016 352h32v-32h-32v32zM32.016 416h32v-32h-32v32zM208 64h-96v224h96v-224zM144 96h32v160h-32v-160zM336 64h-96v352h96v-352zM272 96h32v288h-32v-288zM464 64h-96v288h96v-288zM400 96h32v224h-32v-224z"/>
<glyph unicode="" d="M0 0h512v-32h-512v32zM0 480h32v-512h-32v512zM112 32h32v-32h-32v32zM176 32h32v-32h-32v32zM240 32h32v-32h-32v32zM304 32h32v-32h-32v32zM368 32h32v-32h-32v32zM432 32h32v-32h-32v32zM32.016 96h32v-32h-32v32zM32.016 160h32v-32h-32v32zM32.016 224h32v-32h-32v32zM32.016 288h32v-32h-32v32zM32.016 352h32v-32h-32v32zM32.016 416h32v-32h-32v32zM140.8 118.384l-25.6 19.232 105.984 141.184 81.792-65.36 133.776 133.872 22.64-22.624-154.032-154.128-78.384 62.64zM464.176 208h-32v112h-112v32h144z"/>
<glyph unicode="" d="M0 0h512v-32h-512v32zM0 480h32v-512h-32v512zM112 32h32v-32h-32v32zM176 32h32v-32h-32v32zM240 32h32v-32h-32v32zM304 32h32v-32h-32v32zM368 32h32v-32h-32v32zM432 32h32v-32h-32v32zM32.016 96h32v-32h-32v32zM32.016 160h32v-32h-32v32zM32.016 224h32v-32h-32v32zM32.016 288h32v-32h-32v32zM32.016 352h32v-32h-32v32zM32.016 416h32v-32h-32v32zM436.112 133.296l-133.808 148.784-80.384-64.224-106.16 123.728 24.288 20.832 86.032-100.272 79.808 63.776 154-171.216zM464.096 128h-144v32h112v112h32z"/>
<glyph unicode="" d="M512-32h-512v512h512v-512zM32 0h448v448h-448v-448zM144 384h32v-128h-32v128zM96 336h128v-32h-128v32zM288 336h128v-32h-128v32zM288 176h32v-32h-32v32zM368 112h32v-32h-32v32zM196.691 187.32l22.627-22.627-95.996-95.996-22.627 22.627 95.996 95.996zM388.69 187.322l22.627-22.627-95.996-95.996-22.627 22.627 95.996 95.996zM123.311 187.32l95.996-95.996-22.627-22.627-95.996 95.996 22.627 22.627z"/>
<glyph unicode="" d="M384 240h-64v32h32v16c0 88.224-71.776 160-160 160s-160-71.776-160-160v-16h32v-32h-64v48c0 105.872 86.128 192 192 192s192-86.128 192-192v-48zM352-32h-320v240h32v-208h256v208h32zM512 240h-64v32h32v16c0 88.224-71.776 160-160 160v32c105.872 0 192-86.128 192-192v-48zM480-32h-96v32h64v208h32z"/>
<glyph unicode="" d="M304 320h-96v96h32v-64h32v64h32zM176 480h160v-32h-160v32zM400-32h-288v240h32v-208h224v208h32zM400 208h-32c0 61.76-50.24 112-112 112s-112-50.24-112-112h-32c0 79.392 64.608 144 144 144s144-64.608 144-144zM208 32h-32v176c0 43.808 35.888 79.456 80 79.456v-32c-26.464 0-48-21.296-48-47.456v-176z"/>
<glyph unicode="" d="M304 320h-96v96h32v-64h32v64h32zM208 480h96v-32h-96v32zM352-32h-192v288c0 52.944 43.056 96 96 96s96-43.056 96-96v-288zM192 0h128v256c0 35.296-28.704 64-64 64s-64-28.704-64-64v-256zM256 48h-32v208c0 17.216 13.744 30.192 32 30.192v-238.192z"/>
<glyph unicode="" d="M80 207.936h32v-144h-32v144zM112 207.936h-32c0 75.584 48.752 142.304 118.736 166.432l-68.112 105.696h141.376v-32h-82.688l60.816-94.336-22.928-4.688c-66.752-13.6-115.2-72.944-115.2-141.104zM336-32.064h-160c-52.944 0-96 43.056-96 96h32c0-35.296 28.704-64 64-64h160c35.296 0 64 28.704 64 64h32c0-52.944-43.056-96-96-96zM400 207.936h32v-144h-32v144zM432 207.936h-32c0 68.16-48.448 127.504-115.2 141.104l-22.928 4.672 76.704 119.008 26.912-17.344-52.24-81.008c70-24.128 118.752-90.848 118.752-166.432zM256 96.192c-26.464 0-48 21.536-48 48h32c0-8.832 7.168-16 16-16s16 7.168 16 16-7.168 16-16 16c-26.464 0-48 21.536-48 48s21.536 48 48 48 48-21.536 48-48h-32c0 8.832-7.168 16-16 16s-16-7.168-16-16 7.168-16 16-16c26.464 0 48-21.536 48-48s-21.536-48-48-48zM240 303.936h32v-32.288h-32v32.288zM240 79.936h32v-32.256h-32v32.256z"/>
<glyph unicode="" d="M297.997 300.49l80.002-64-19.99-24.989-80.001 64 19.99 24.989zM240 144h-240v160h240v-32h-208v-96h208zM208-17.616v129.616h32v-62.384l214.624 174.384-214.624 174.384v-62.384h-32v129.616l297.376-241.616z"/>
<glyph unicode="" d="M256 226c-35.296 0-64 28.704-64 64s28.704 64 64 64 64-28.704 64-64-28.704-64-64-64zM256 322c-17.648 0-32-14.352-32-32s14.352-32 32-32 32 14.352 32 32-14.352 32-32 32zM147.568 156.56c-68.624 68.624-68.624 180.288 0 248.912l22.624-22.624c-56.144-56.16-56.144-147.504 0-203.664l-22.624-22.624zM74.704 108.368c-99.44 99.52-99.44 261.424 0 360.944l22.64-22.624c-86.992-87.024-86.992-228.656 0-315.68l-22.64-22.64zM364.464 164.4l-22.624 22.624c56.128 56.144 56.128 147.504 0 203.664l22.64 22.624c68.592-68.64 68.592-180.304-0.016-248.912zM437.296 100.56l-22.64 22.624c86.992 87.040 86.992 228.64 0 315.664l22.624 22.624c99.456-99.488 99.456-261.392 0.016-360.912zM320 101.6h-32v32.4c0 17.648-14.352 32-32 32s-32-14.352-32-32v-32.4h-32v32.4c0 35.296 28.704 64 64 64s64-28.704 64-64v-32.4zM320-26h-128v96.4h128v-96.4zM224 6h64v32.4h-64v-32.4z"/>
<glyph unicode="" d="M175.984-31.984c-47.024 0-91.216 18.304-124.448 51.52-68.624 68.624-68.624 180.288 0 248.912l56.56 56.56 248.912-248.88-56.56-56.592c-33.248-33.216-77.44-51.52-124.464-51.52zM108.096 279.744l-33.936-33.936c-56.144-56.16-56.144-147.504 0-203.664 27.184-27.168 63.344-42.144 101.824-42.144 38.48 0 74.656 14.976 101.84 42.144l33.936 33.968-203.664 203.632zM96.784 64.784c-43.664 43.664-43.664 114.736 0 158.4l22.624-22.624c-31.184-31.2-31.184-81.952 0-113.152l-22.624-22.624zM285.264 178.752l-22.64 22.624c6.048 6.048 9.376 14.080 9.376 22.64 0 8.544-3.328 16.576-9.36 22.608-12.096 12.096-33.168 12.096-45.248 0l-22.64 22.624c24.176 24.192 66.336 24.192 90.512 0 12.064-12.064 18.736-28.144 18.736-45.232s-6.672-33.168-18.736-45.264zM383.36 218.432c-0.016 79.408-64.608 144-144 144v32c97.024 0 175.984-78.96 176-176h-32zM480 224.784c-0.048 123.040-100.192 223.184-223.216 223.216v32c140.656-0.032 255.152-114.512 255.216-255.216h-32z"/>
<glyph unicode="" d="M256 48c-123.52 0-224 86.128-224 192v16h64v-32h-31.040c9.664-80.736 91.664-144 191.040-144s181.376 63.264 191.040 144h-31.040v32h64v-16c0-105.872-100.48-192-224-192zM256 320c-44.112 0-80 35.888-80 80s35.888 80 80 80 80-35.888 80-80-35.888-80-80-80zM256 448c-26.464 0-48-21.536-48-48s21.536-48 48-48 48 21.536 48 48-21.536 48-48 48zM240 336h32v-224h-32v224zM256-32c-26.464 0-48 21.536-48 48h32c0-8.832 7.168-16 16-16s16 7.168 16 16h32c0-26.464-21.536-48-48-48z"/>
<glyph unicode="" d="M95.888 63.952c-15.648 0-31.152 3.872-45.328 11.488-46.624 25.056-64.16 83.392-39.104 130.016 25.072 46.624 83.392 64.16 130 39.104l-15.136-28.192c-31.104 16.688-69.984 5.008-86.672-26.080-16.704-31.072-5.008-69.968 26.080-86.672 15.056-8.080 32.336-9.84 48.736-4.912 16.368 4.928 29.84 15.92 37.936 30.992l28.192-15.152c-12.128-22.576-32.336-39.072-56.896-46.464-9.168-2.768-18.512-4.128-27.808-4.128zM491.188 302.55l9.702-30.493-400.005-127.276-9.703 30.493 400.005 127.276zM195.984 229.472l-135.232 154.528h339.264v-96h-32v64h-236.736l88.768-101.472zM300.496 169.99l64-80.001-24.989-19.99-64 80.001 24.989 19.99z"/>
<glyph unicode="" d="M256 96c-105.872 0-192 86.128-192 192s86.128 192 192 192 192-86.128 192-192-86.128-192-192-192zM256 448c-88.224 0-160-71.776-160-160s71.776-160 160-160 160 71.776 160 160-71.776 160-160 160zM256 192c-52.944 0-96 43.056-96 96s43.056 96 96 96 96-43.056 96-96-43.056-96-96-96zM256 352c-35.296 0-64-28.704-64-64s28.704-64 64-64 64 28.704 64 64-28.704 64-64 64zM256 288h-32c0 17.648 14.352 32 32 32v-32zM439.632-32h-367.264l40.768 101.936 29.728-11.872-23.232-58.064h272.736l-23.232 58.064 29.728 11.872z"/>
<glyph unicode="" d="M408.544 172.928l-22.624 22.624 61.264 61.248c43.664 43.696 43.664 114.752 0 158.4-43.664 43.664-114.736 43.664-158.384 0l-61.264-61.248-22.624 22.624 61.264 61.248c56.144 56.144 147.488 56.144 203.648 0 56.144-56.112 56.144-147.488 0-203.664l-61.28-61.232zM144-31.936c-36.88 0-73.744 14.032-101.824 42.112-56.144 56.144-56.144 147.504 0 203.664l61.264 61.28 22.64-22.64-61.264-61.28c-43.664-43.664-43.664-114.736 0-158.4s114.72-43.664 158.384 0l61.264 61.28 22.624-22.624-61.264-61.28c-28.064-28.080-64.944-42.112-101.824-42.112zM91.313 411.332l128.002-128.002-22.627-22.627-128.002 128.002 22.627 22.627zM315.313 187.336l128.002-128.002-22.627-22.627-128.002 128.002 22.627 22.627z"/>
<glyph unicode="" d="M320 112h-320v320h320v-320zM32 144h256v256h-256v-256zM512 112h-160v32h128v108.224l-41.888 83.776h-54.112v-96h64v-32h-96v160h105.888l54.112-108.224zM64 240h192v-32h-192v32zM432 16c-35.296 0-64 28.704-64 64h32c0-17.648 14.352-32 32-32s32 14.352 32 32h32c0-35.296-28.704-64-64-64zM128 16c-35.296 0-64 28.704-64 64h32c0-17.648 14.352-32 32-32s32 14.352 32 32h32c0-35.296-28.704-64-64-64z"/>
<glyph unicode="" d="M256-32c-114.688 0-208 93.312-208 208 0 84.176 50.208 159.552 127.904 192.032l12.336-29.52c-65.76-27.488-108.24-91.28-108.24-162.512 0-97.040 78.96-176 176-176 90.88 0 167.92 70.864 175.408 161.328l31.904-2.64c-8.864-106.928-99.92-190.688-207.312-190.688zM431.248 190.704c-5.344 65.664-46.528 122.304-107.504 147.824l12.336 29.52c72.064-30.144 120.736-97.104 127.056-174.736l-31.888-2.608zM304 336h-32v80h48v32h-128v-32h48v-80h-32v48h-48v96h192v-96h-48zM452.681 411.313l22.627-22.627-48.004-48.004-22.627 22.627 48.003 48.003zM452.683 433.944l45.255-45.255-22.627-22.627-45.255 45.255 22.627 22.627zM384 160h-144v144h32v-112h112z"/>
<glyph unicode="" d="M358.016 105.104l-118.016 114.544v166.752h32v-153.232l108.304-105.088zM257.248-29.44c-66.24 0-132.048 25.488-181.408 74.832l22.624 22.624c75.040-75.024 193.6-87.024 281.904-28.528l17.68-26.672c-42.864-28.384-91.952-42.256-140.8-42.256zM470.416 85.216l-26.688 17.664c58.528 88.32 46.544 206.864-28.496 281.92l22.624 22.624c85.776-85.76 99.456-221.28 32.56-322.208zM512.832 226.192h-32c0 106.048-76.064 198.448-180.88 219.728l6.368 31.36c119.664-24.288 206.512-129.888 206.512-251.088zM255.152-29.6c-141.152 0-256 114.848-256 256 0 121.28 86.144 226.768 204.816 250.864l6.352-31.36c-103.808-21.072-179.168-113.376-179.168-219.504 0-123.52 100.48-224 224-224v-32z"/>
<glyph unicode="" d="M511.984 256h-512v192h512v-192zM31.984 288h448v128h-448v-128zM463.984 0h-416v240h32v-208h352v208h32zM383.984 128h-256v96h32v-64h192v64h32z"/>
<glyph unicode="" d="M198.384 256h-198.384v32h175.856l65.088 181.408 30.112-10.816zM446.896-20.928l-190.896 113.216-190.896-113.216 69.248 185.2-93.344 45.344 13.984 28.768 119.52-58.048-47.616-127.408 129.104 76.56 129.104-76.56-47.616 127.408 119.52 58.048 13.984-28.768-93.344-45.344zM512 256h-220.16l-35.248 126.448 30.816 8.592 28.752-103.040h195.84z"/>
<glyph unicode="" d="M461.36 128h-313.52l-80 288h-51.84v32h76.16l80-288h262.48l26.192 144h-252.832v32h291.168zM192 0c-26.464 0-48 21.536-48 48s21.536 48 48 48 48-21.536 48-48-21.536-48-48-48zM192 64c-8.816 0-16-7.168-16-16s7.184-16 16-16 16 7.168 16 16-7.184 16-16 16zM400 0c-26.464 0-48 21.536-48 48s21.536 48 48 48 48-21.536 48-48-21.536-48-48-48zM400 64c-8.832 0-16-7.168-16-16s7.168-16 16-16 16 7.168 16 16-7.168 16-16 16zM240 272h32v-80h-32v80zM336 272h32v-80h-32v80z"/>
<glyph unicode="" d="M47.984 336h32v-208h-32v208zM431.984 336h32v-208h-32v208zM275.984-32h-40l-149.904 80.128c-35.504 21.248-38.096 44.48-38.096 79.872h32c0-32.448 2.064-40.608 23.984-53.28l0.080-0.048 139.936-74.672h24l140.016 74.72c21.92 12.672 23.984 20.832 23.984 53.28h32c0-35.392-2.592-58.624-38.096-79.888l-2.368-1.392-147.536-78.72zM143.984 224h224v-32h-224v32zM143.984 160h224v-32h-224v32zM143.984 288h112v-32h-112v32zM463.984 368h-112c-40.688 0-76.384 21.808-96 54.352-19.616-32.544-55.312-54.352-96-54.352h-112v32h112c44.112 0 80 35.888 80 80h32c0-44.112 35.888-80 80-80h112v-32z"/>
<glyph unicode="" d="M43.948 34.573l22.627-22.627-39.258-39.258-22.627 22.627 39.258 39.258zM434.094 424.738l22.627-22.627-77.25-77.249-22.627 22.627 77.25 77.25zM427.305 475.322l79.998-79.999-22.627-22.627-79.998 79.998 22.627 22.627zM211.872 44.128l-22.624 22.624 177.12 177.136-90.496 90.512-177.136-177.136-22.624 22.624 199.76 199.776 135.76-135.776zM132.996 191.548l26.534-26.504-22.614-22.64-26.534 26.504 22.614 22.64zM180.996 239.546l26.534-26.504-22.614-22.64-26.534 26.504 22.614 22.64zM228.995 287.544l26.534-26.504-22.614-22.64-26.534 26.504 22.614 22.64zM143.984 16.064c-24.592 0-49.168 9.344-67.872 28.064-37.424 37.44-37.424 98.336 0 135.76l22.624-22.624c-24.944-24.96-24.944-65.568 0-90.512s65.536-24.944 90.512 0l22.624-22.624c-18.72-18.72-43.296-28.064-67.888-28.064z"/>
<glyph unicode="" d="M476.272 229.488l-24.528 20.528c17.936 21.488 28.256 49.904 28.256 77.984 0 66.176-53.824 120-120 120-35.648 0-69.088-15.424-91.76-42.32l-12.24-14.512-12.24 14.512c-22.672 26.896-56.112 42.32-91.76 42.32-66.176 0-120-53.824-120-120 0-28.080 10.304-56.496 28.272-77.984l-24.544-20.528c-23.040 27.536-35.728 62.528-35.728 98.512 0 83.808 68.192 152 152 152 39.072 0 76.096-14.688 104-40.8 27.904 26.112 64.928 40.8 104 40.8 83.808 0 152-68.192 152-152 0-35.984-12.688-70.976-35.728-98.512zM242.576 102.704l-53.136 115.056-19.184-41.76h-170.256v32h149.744l39.6 86.304 49.456-107.104 64.624 180.896 59.088-160.096h149.488v-32h-171.792l-36.288 98.336zM279.44-32h-46.88l-132.784 157.44 24.448 20.624 123.216-146.064h17.12l123.2 146.064 24.48-20.624z"/>
<glyph unicode="" d="M235.28 65.968l-135.744 135.76 178.736 178.736 135.76-135.744-178.752-178.752zM144.784 201.728l90.496-90.512 133.504 133.504-90.512 90.496-133.488-133.488zM96-32c-25.632 0-49.728 9.984-67.872 28.128-37.44 37.44-37.44 98.336-0.016 135.76l44.144 44.112 22.624-22.624-44.128-44.112c-12.096-12.080-18.752-28.16-18.752-45.248 0-17.104 6.672-33.168 18.752-45.264 12.096-12.096 28.176-18.752 45.248-18.752 17.088 0 33.152 6.656 45.248 18.752l44.128 44.128 22.624-22.624-44.128-44.128c-18.128-18.144-42.224-28.128-67.872-28.128zM439.744 272.016l-22.624 22.624 44.128 44.096c12.096 12.080 18.752 28.16 18.752 45.248-0.016 17.088-6.672 33.168-18.752 45.264-24.208 24.208-66.336 24.192-90.496 0l-44.128-44.128-22.624 22.624 44.128 44.128c18.128 18.144 42.224 28.128 67.872 28.128 25.632 0 49.728-9.984 67.872-28.128 18.128-18.144 28.112-42.224 28.128-67.872 0-25.664-9.984-49.76-28.128-67.888l-44.128-44.096zM192 230.631l22.627-22.627-22.627-22.627-22.627 22.627 22.627 22.627zM256 246.631l22.627-22.627-22.627-22.627-22.627 22.627 22.627 22.627zM272 310.63l22.627-22.627-22.627-22.627-22.627 22.627 22.627 22.627zM240 182.63l22.627-22.627-22.627-22.627-22.627 22.627 22.627 22.627zM320 262.63l22.627-22.627-22.627-22.627-22.627 22.627 22.627 22.627z"/>
<glyph unicode="" d="M343.664-28.432l-135.664 122.16v-39.872l5.168 5.008 22.288-22.944-59.456-57.776v187.472l152.336-137.184 126.512 393.584-393.312-140.464 84.416-82.272 162.96 123.36 19.312-25.52-184.896-139.968-140.864 137.296 502.688 179.536z"/>
<glyph unicode="" d="M408.56 172.912l-22.624 22.624 61.264 61.264c43.664 43.664 43.664 114.736 0 158.4s-114.72 43.664-158.384 0l-61.264-61.264-22.624 22.624 61.264 61.264c56.144 56.16 147.504 56.16 203.648 0 56.144-56.144 56.144-147.52 0-203.664l-61.28-61.248zM144.016-32c-38.464 0-74.624 14.976-101.824 42.176-56.144 56.16-56.144 147.536 0 203.664l124.256 124.224 204.192-203.088-124.8-124.8c-27.2-27.2-63.36-42.176-101.824-42.176zM166.512 292.88l-101.68-101.664c-43.664-43.664-43.664-114.736 0-158.416 21.152-21.152 49.264-32.8 79.184-32.8s58.032 11.648 79.2 32.8l102.112 102.112-158.816 157.968z"/>
<glyph unicode="" d="M477.872 0h-443.744l-33.968 237.728 31.68 4.544 30.032-210.272h388.256l30.032 210.272 31.68-4.544zM0 304h512v-32h-512v32zM207.782 194.623l16-96.005-31.565-5.261-16 96.005 31.565 5.261zM304.181 194.63l31.565-5.251-15.971-96.005-31.565 5.251 15.971 96.005zM354.877 457.172l26.221-18.346-111.973-160.038-26.221 18.346 111.972 160.038z"/>
<glyph unicode="" d="M334.528-36.096c-75.536 0-159.792 36.352-228.144 104.544-109.28 108.992-138.912 260.656-68.912 352.768l25.472-19.36c-59.344-78.128-30.352-214.624 66.048-310.768 96.208-96 231.008-123.2 306.848-61.904l20.128-24.896c-33.744-27.248-76.016-40.384-121.44-40.384zM484.672 41.76l-120.944 121.328-21.744-21.808c-22.88-22.976-53.328-35.648-85.712-35.648-32.4 0-62.864 12.656-85.744 35.648-47.248 47.36-47.248 124.464 0 171.872l21.808 21.872-121.008 121.424 22.656 22.592 143.536-144-44.336-44.464c-34.832-34.944-34.832-91.76 0-126.688 16.864-16.928 39.264-26.24 63.088-26.24 23.808 0 46.224 9.328 63.040 26.224l44.416 44.544 143.6-144.064-22.656-22.592z"/>
<glyph unicode="" d="M472.576 304.8l-135.744 135.76 11.312 11.312c18.128 18.144 42.24 28.128 67.872 28.128s49.744-9.984 67.872-28.128c37.424-37.44 37.424-98.336 0-135.76l-11.312-11.312zM383.488 439.136l87.664-87.664c14.448 24.528 11.152 56.72-9.888 77.76-20.336 20.352-53.712 24.208-77.776 9.904zM333.967 424.005l96.007-159.75-27.413-16.475-96.007 159.749 27.413 16.475zM9.44-22.48l47.664 178.656 30.912-8.256-33.456-125.44 125.792 33.136 8.16-30.944zM214.528 47.904l-37.696 96.656-96.656 37.776 198.64 200.464 22.736-22.528-164.352-165.872 64.352-25.152 25.040-64.224 133.44 132.688 22.56-22.688z"/>
<glyph unicode="" d="M164.983 147.644l21.966-23.249-143.972-136.030-21.966 23.249 143.972 136.030zM208 103.968c-35.296 0-64 28.704-64 64s28.704 64 64 64 64-28.704 64-64-28.704-64-64-64zM208 199.968c-17.648 0-32-14.352-32-32s14.352-32 32-32 32 14.352 32 32-14.352 32-32 32zM368.016 215.984c-34.192 0-66.336 13.328-90.512 37.504-24.192 24.176-37.504 56.32-37.52 90.496 0 34.192 13.328 66.336 37.52 90.528l43.712 44.16 181.424-181.168-44.128-44.032c-24.176-24.16-56.304-37.488-90.496-37.488zM321.344 433.328l-21.168-21.376c-18.208-18.224-28.192-42.336-28.192-67.968 0-25.648 10-49.728 28.144-67.872 18.128-18.128 42.24-28.128 67.888-28.128 25.648 0 49.744 10 67.888 28.128l21.44 21.392-136 135.824zM13.648-19.664l35.392 309.648 151.184 84 15.552-27.968-136.816-76-28.608-250.352 273.84 50.432 44.816 119.536 29.984-11.264-51.184-136.464z"/>
<glyph unicode="" d="M160-16c-42.752 0-82.928 16.656-113.136 46.88-30.224 30.208-46.864 70.384-46.864 113.12 0 42.736 16.64 82.928 46.864 113.152l184.96 198.192 23.408-21.824-185.36-198.592c-24.56-24.576-37.872-56.736-37.872-90.928s13.312-66.336 37.488-90.496c24.176-24.176 56.32-37.504 90.512-37.504s66.336 13.328 90.496 37.504l201.024 214.256c18.496 18.496 28.48 42.592 28.48 68.24s-9.984 49.744-28.128 67.872c-18.128 18.144-42.224 28.128-67.872 28.128s-49.744-9.984-67.872-28.128l-201.024-214.224c-25.424-25.44-25.504-66.128-0.56-91.088 12.032-12.032 28.080-18.656 45.168-18.656 0.048 0 0.096 0 0.16 0 17.152 0.032 33.264 6.736 45.376 18.848l192.896 201.136 23.088-22.16-193.12-201.376c-18.352-18.368-42.48-28.384-68.176-28.448-0.080 0-0.144 0-0.224 0-25.664 0-49.712 9.952-67.792 28.032-37.44 37.424-37.344 98.432 0.208 135.968l201.008 214.224c24.528 24.544 56.656 37.872 90.864 37.872s66.336-13.328 90.496-37.504c24.192-24.16 37.504-56.304 37.504-90.496s-13.312-66.336-37.504-90.512l-201.008-214.24c-30.56-30.592-70.752-47.248-113.488-47.248z"/>
<glyph unicode="" d="M159.632 63.984v0c-88.016 0-159.632 71.776-159.632 160s71.52 160 159.44 160l192.944 0.032c88.016 0 159.632-71.776 159.632-160-0.016-88.24-71.536-160.016-159.456-160.016l-192.928-0.016zM352.368 352.016l-192.928-0.032c-70.272 0-127.44-57.424-127.44-128s57.248-128 127.632-128l192.928 0.016c70.272 0 127.44 57.424 127.44 128.016 0 70.576-57.248 128-127.632 128zM160 127.984c-52.944 0-96 43.056-96 96s43.056 96 96 96 96-43.056 96-96-43.056-96-96-96zM160 287.984c-35.296 0-64-28.704-64-64s28.704-64 64-64 64 28.704 64 64-28.704 64-64 64z"/>
<glyph unicode="" d="M432 304h-32c0 79.408-64.608 144-144 144s-144-64.592-144-144h-32c0 97.040 78.96 176 176 176s176-78.96 176-176zM256-32c-97.040 0-176 78.96-176 176v128h32v-128c0-79.408 64.608-144 144-144s144 64.592 144 144v128h32v-128c0-97.040-78.96-176-176-176zM240 384h32v-128h-32v128z"/>
<glyph unicode="" d="M240 160h-80v32h48v128h-80v32h112zM512 57.376l-293.328 103.536 10.656 30.176 250.672-88.464v306.752l-250.672-88.464-10.656 30.176 293.328 103.536zM426.462 356.528l11.094-30.016-143.821-53.159-11.094 30.016 143.821 53.159zM96 160h-96v192h96v-192zM32 192h32v128h-32v-128zM128 0c-35.296 0-64 28.704-64 64v64h32v-64c0-17.648 14.352-32 32-32s32 14.352 32 32v64h64v-32h-32v-32c0-35.296-28.704-64-64-64z"/>
<glyph unicode="" d="M204.896 172.928c-56.112 56.16-56.112 147.52 0 203.664l22.624-22.624c-43.648-43.664-43.648-114.72 0-158.4l-22.624-22.64zM408.544 172.928l-22.624 22.624 61.264 61.248c43.664 43.696 43.664 114.752 0 158.4-43.664 43.648-114.72 43.664-158.384 0l-61.264-61.248-22.624 22.624 61.264 61.248c56.128 56.144 147.488 56.144 203.648 0 56.144-56.112 56.144-147.488 0-203.664l-61.28-61.232zM307.088 71.456l-22.624 22.624c43.664 43.664 43.664 114.704 0 158.4l22.624 22.624c56.144-56.16 56.144-147.536 0-203.648zM144-31.936c-36.88 0-73.744 14.032-101.824 42.112-56.144 56.144-56.144 147.504 0 203.664l61.264 61.28 22.64-22.64-61.264-61.28c-43.664-43.664-43.664-114.736 0-158.4s114.72-43.664 158.384 0l61.264 61.28 22.624-22.624-61.264-61.28c-28.064-28.080-64.944-42.112-101.824-42.112z"/>
<glyph unicode="" d="M96 256h32v-32h-32v32zM192 256h32v-32h-32v32zM288 256h32v-32h-32v32zM384 256h32v-32h-32v32zM96 320h32v-32h-32v32zM192 320h32v-32h-32v32zM288 320h32v-32h-32v32zM384 320h32v-32h-32v32zM128 160h256v-32h-256v32zM512 48h-512v304h32v-272h448v288h-480v32h512z"/>
<glyph unicode="" d="M448.032-32h-384v208h32v-176h320v176h32zM484.336 181.056l-228.336 243.552-228.336-243.552-23.328 21.888 251.664 268.448 251.664-268.448zM320 32h-32v112h-64v-112h-32v144h128zM256.032 208c-35.296 0-64 28.704-64 64s28.704 64 64 64 64-28.704 64-64-28.704-64-64-64zM256.032 304c-17.648 0-32-14.352-32-32s14.352-32 32-32 32 14.352 32 32-14.368 32-32 32z"/>
<glyph unicode="" d="M261.12-11.728l-225.392 209.216c-23.040 27.536-35.728 62.528-35.728 98.512 0 83.808 68.192 152 152 152 39.072 0 76.096-14.688 104-40.8 27.904 26.112 64.928 40.8 104 40.8 83.808 0 152-68.192 152-152 0-35.984-12.688-70.976-35.728-98.512l-1.52-1.584-176-159.744-21.504 23.68 175.152 158.992c17.552 21.376 27.6 49.44 27.6 77.168 0 66.176-53.824 120-120 120-35.648 0-69.088-15.424-91.76-42.32l-12.24-14.496-12.24 14.512c-22.672 26.88-56.112 42.304-91.76 42.304-66.176 0-120-53.824-120-120 0-27.76 10.064-55.84 27.648-77.232l223.232-207.040-21.76-23.456zM243.328 92.048l-161.12 149.776c-11.744 15.52-18.208 34.768-18.208 54.176 0 48.528 39.472 88 88 88v-32c-30.88 0-56-25.12-56-56 0-11.872 3.984-24.112 10.944-33.824l158.16-146.672-21.776-23.456zM311.056 319.872l-28.032 15.44c11.328 20.56 30.016 35.488 52.624 42.016 22.608 6.544 46.352 3.888 66.928-7.424l-15.44-28.032c-13.056 7.2-28.192 8.88-42.592 4.72-14.384-4.16-26.288-13.648-33.488-26.72z"/>
<glyph unicode="" d="M112 80.064h-16c-54.736 0-96 41.264-96 96s41.264 96 96 96h16v-192zM80 238.304c-28.576-6.56-48-30.736-48-62.24s19.424-55.664 48-62.24v124.48zM416 80.064h-16v192h16c54.736 0 96-41.264 96-96s-41.264-96-96-96zM432 238.304v-124.464c28.576 6.56 48 30.736 48 62.24s-19.424 55.648-48 62.224zM432 0.064v32c7.968 0 16 4.96 16 16h32c0-27.36-20.64-48-48-48zM368 32.064h64v-32h-64v32zM328.416-32.080c-26.464 0-48 21.536-48 48s21.536 48 48 48 48-21.536 48-48-21.52-48-48-48zM328.416 31.92c-8.832 0-16-7.168-16-16s7.168-16 16-16 16 7.168 16 16-7.168 16-16 16zM432 303.968h-32c0 79.456-64.592 144.096-144 144.096s-144-64.64-144-144.096h-32c0 97.088 78.96 176.096 176 176.096s176-79.008 176-176.096z"/>
<glyph unicode="" d="M461.36 128h-313.52l-80 288h-51.84v32h76.16l80-288h262.48l26.192 144h-252.112v32h290.448zM192 0c-26.464 0-48 21.536-48 48s21.536 48 48 48 48-21.536 48-48-21.536-48-48-48zM192 64c-8.832 0-16-7.168-16-16s7.168-16 16-16 16 7.168 16 16-7.168 16-16 16zM400 0c-26.464 0-48 21.536-48 48s21.536 48 48 48 48-21.536 48-48-21.536-48-48-48zM400 64c-8.832 0-16-7.168-16-16s7.168-16 16-16 16 7.168 16 16-7.168 16-16 16zM240 272h32v-80h-32v80zM336 272h32v-80h-32v80zM240 368h-32v43.536l106.944 35.632 10.112-30.336-85.056-28.368zM464 368h-32v35.504l-96 24v-59.504h-32v100.496l160-40z"/>
<glyph unicode="" d="M512 336h-32v112h-111.984v32h143.984zM484.683 475.315l22.627-22.627-209.143-209.143-22.627 22.627 209.143 209.143zM143.984-32h-143.984v143.968h32v-111.968h111.984zM213.833 204.445l22.627-22.627-209.132-209.132-22.627 22.627 209.132 209.132zM96 304h-32v111.968h111.968v-32h-79.968zM64 271.968h32v-95.968h-32v95.968zM208.016 416h95.984v-32h-95.984v32zM448 32.032h-111.968v32h79.968v79.968h32zM416 272h32v-95.968h-32v95.968zM208 64h95.984v-32h-95.984v32z"/>
<glyph unicode="" d="M511.984 16h-512v320h512v-320zM31.984 48h448v256h-448v-256zM512 368h-320v32h-160v-32h-32v64h224v-32h288z"/>
<glyph unicode="" d="M416 256h-320v128h32v-96h256v96h32zM352 320h-96v64h32v-32h32v32h32zM512-32h-512v512h416v-32h-384v-448h448v384.016h32zM96 192h320v-32h-320v32zM96 128h320v-32h-320v32zM96 64h320v-32h-320v32z"/>
<glyph unicode="" d="M384 32h-352v448h352v-448zM64 64h288v384h-288v-384zM112 288h192v-32h-192v32zM112 224h192v-32h-192v32zM112 160h192v-32h-192v32zM112 352.272h96v-32h-96v32zM480-32h-336v32h304v384h-31.12v32h63.12z"/>
<glyph unicode="" d="M144 256h208v-32h-208v32zM144 192h208v-32h-208v32zM144 128h208v-32h-208v32zM144 352h96v-32h-96v32zM464-32h-432v448h32v-416h368v448h-400v32h432z"/>
<glyph unicode="" d="M256 80c-47.488 0-87.024 34.656-94.672 80h-163.6l34.416 258.112 31.712-4.24-29.584-221.872h157.728v-16c0-35.296 28.704-64 64-64s64 28.704 64 64v16h157.712l-29.568 221.888 31.712 4.24 34.432-258.128h-163.616c-7.648-45.344-47.184-80-94.672-80zM512-16h-512v144h32v-112h448v112h32zM416 224h-32v208h-256v-208h-32v240h320zM160 400h80v-32h-80v32zM160 336h192v-32h-192v32zM160 272h192v-32h-192v32z"/>
<glyph unicode="" d="M416 240h-143.968v144h32v-112h111.968zM484.697 475.312l22.627-22.627-193.135-193.135-22.627 22.627 193.135 193.135zM240 64h-32v111.968h-112v32h144zM197.837 188.454l22.627-22.627-193.135-193.135-22.627 22.627 193.135 193.135zM32 367.44h-32v111.968h111.968v-32h-79.968zM0 335.408h32v-95.968h-32v95.968zM144.032 479.44h95.968v-32h-95.968v32zM512-31.968h-111.968v32h79.968v79.968h32zM480 208h32v-95.968h-32v95.968zM272 0h96v-32h-96v32z"/>
<glyph unicode="" d="M256 96c-47.488 0-87.024 34.656-94.672 80h-163.6l36.272 272h444.016l36.272-272h-163.616c-7.648-45.328-47.184-80-94.672-80zM34.272 208h157.728v-16c0-35.296 28.704-64 64-64s64 28.704 64 64v16h157.728l-27.728 208h-388l-27.728-208zM512 0h-512v144h32v-112h448v112h32z"/>
<glyph unicode="" d="M416-32h-320v368h32v-336h256v336h32zM64 400h384v-32h-384v32zM336 368h-160v112h160v-112zM208 400h96v48h-96v-48zM192 288h32v-224h-32v224zM288 288h32v-224h-32v224z"/>
<glyph unicode="" d="M368.496 32h-224.832c-79.216 0-143.664 64.592-143.664 144s64.368 144 143.504 144h240.816c66.832 0 127.68-68.64 127.68-144 0-79.408-64.368-144-143.504-144zM143.504 288c-61.488 0-111.504-50.256-111.504-112s50.096-112 111.664-112h224.832c61.488 0 111.504 50.256 111.504 112 0 63.072-51.44 112-95.68 112h-240.816zM128 240h32v-128h-32v128zM80 192h128v-32h-128v32zM272 352h-32v32c0 26.464 21.536 48 48 48v-32c-8.832 0-16-7.168-16-16v-32zM326.624 179.296c-6.24 6.24-16.368 6.24-22.64 0.016l-22.624 22.624c18.72 18.72 49.136 18.704 67.888 0.016l-22.624-22.656zM281.392 134.032c-9.056 9.056-14.064 21.12-14.064 33.936 0 12.832 4.992 24.88 14.064 33.952l22.624-22.656c-3.024-3.008-4.688-7.024-4.688-11.296s1.664-8.288 4.688-11.312l-22.624-22.624zM422.624 179.296c-6.24 6.24-16.368 6.24-22.64 0.016l-22.624 22.624c18.72 18.72 49.136 18.704 67.888 0.016l-22.624-22.656zM377.392 134.032c-9.056 9.056-14.064 21.12-14.064 33.936-0.016 12.832 4.992 24.88 14.064 33.952l22.624-22.656c-3.024-3.008-4.688-7.024-4.688-11.296s1.664-8.288 4.688-11.312l-22.624-22.624z"/>
<glyph unicode="" d="M256-32c-123.52 0-224 100.48-224 224 0 104.432 70.864 194.064 172.336 217.984l7.344-31.136c-86.96-20.512-147.68-97.328-147.68-186.848 0-105.872 86.128-192 192-192s192 86.128 192 192c0 89.52-60.72 166.336-147.664 186.832l7.344 31.136c101.456-23.904 172.32-113.536 172.32-217.968 0-123.52-100.48-224-224-224zM240 480h32v-96h-32v96zM208 480h96v-32h-96v32zM150.464 86.768l42.48 126.24 30.336-10.208-22-65.36 65.536 21.856 10.128-30.368zM319.056 170.992l-30.336 10.208 22 65.36-65.536-21.856-10.128 30.368 126.48 42.16z"/>
<glyph unicode="" d="M255.584 224c-44.112 0-80 35.888-80 80s35.888 80 80 80 80-35.888 80-80-35.904-80-80-80zM255.584 352c-26.464 0-48-21.536-48-48s21.536-48 48-48 48 21.536 48 48-21.536 48-48 48zM260.016 77.84c-30.896 0-62.16 8.112-90.496 25.184l16.496 27.408c68.016-40.928 156.704-18.96 197.664 49.056l27.408-16.496c-32.992-54.784-91.344-85.152-151.072-85.152zM239.584 480h32v-64h-32v64zM192.179 212.471l30.718-8.908-64.959-224.012-30.718 8.908 64.96 224.012zM317.928 212.438l65.006-224.012-30.717-8.914-65.006 224.012 30.717 8.914z"/>
<glyph unicode="" d="M448-32h-384v448h64.256v-32h-32.256v-384h320v384h-33.2v32h65.2zM351.44 351.808h-190.88v96.192h50.128c6.608 18.624 24.4 32 45.264 32s38.656-13.376 45.264-32h50.224v-96.192zM192.56 383.808h126.88v32.192h-47.488v16c0 8.816-7.184 16-16 16s-16-7.184-16-16v-16h-47.392v-32.192zM159.872 224h192v-32h-192v32zM159.872 160h192v-32h-192v32zM159.872 96h192v-32h-192v32zM159.872 288h80v-32h-80v32z"/>
<glyph unicode="" d="M448-32h-384v448h64.256v-32h-32.256v-384h320v384h-33.2v32h65.2zM351.44 351.808h-190.88v96.192h50.128c6.608 18.624 24.4 32 45.264 32s38.656-13.376 45.264-32h50.224v-96.192zM192.56 383.808h126.88v32.192h-47.488v16c0 8.816-7.168 16-16 16s-16-7.184-16-16v-16h-47.392v-32.192zM207.904 272h32v-224h-32v224zM271.888 304h32v-256h-32v256zM335.888 256h32v-208h-32v208zM143.904 160h32v-112h-32v112z"/>
<glyph unicode="" d="M160.656 480h192v-32h-192v32zM421.712-32h-331.424l-4.688 4.688c-24.176 24.176-37.536 56.576-37.616 91.264-0.064 34.752 13.2 67.184 37.36 91.36l107.312 107.312v153.376h32v-166.624l-116.688-116.688c-18.096-18.112-28.032-42.48-27.984-68.656 0.048-23.984 8.464-46.464 23.84-64.032h304.336c32.864 37.68 31.52 97.024-4.128 132.688l-116.688 116.688v166.624h32v-153.376l107.312-107.312c50.288-50.304 50.16-132.224-0.256-182.624l-4.688-4.688zM115.44 42.896c-2.272 6.688-3.424 13.808-3.44 21.184-0.048 17.6 6.576 33.92 18.64 45.984l112.048 112 22.624-22.624-112.048-112c-6-6-9.28-14.272-9.264-23.28 0.016-3.904 0.592-7.632 1.744-11.040l-30.304-10.224z"/>
<glyph unicode="" d="M256-32c-141.152 0-256 114.848-256 256s114.848 256 256 256 256-114.848 256-256-114.848-256-256-256zM256 448c-123.52 0-224-100.48-224-224s100.48-224 224-224 224 100.48 224 224-100.48 224-224 224zM256 160c-35.296 0-64 28.704-64 64s28.704 64 64 64 64-28.704 64-64-28.704-64-64-64zM256 256c-17.648 0-32-14.352-32-32s14.352-32 32-32 32 14.352 32 32-14.352 32-32 32zM240 416h32v-160h-32v160zM240 192h32v-160h-32v160zM380.456 371.080l22.627-22.627-113.136-113.136-22.627 22.627 113.136 113.136zM222.053 212.69l22.627-22.627-113.136-113.136-22.627 22.627 113.136 113.136z"/>
<glyph unicode="" d="M234.32 31.792l-170.192 175.296 344.352 269.424 100.128-100.112-274.288-344.608zM111.888 203.84l120.048-123.648 233.824 293.776-59.872 59.888-294-230.016zM389.942 380.704l19.722-25.222-216.286-169.119-19.722 25.222 216.286 169.119zM70.048-7.184l-45.248 45.248 11.328 11.312c18.704 18.704 18.704 49.152 0 67.872l-11.296 11.312 34.192 34.224 22.64-22.624-12.72-12.736c17.632-26.64 17.632-61.6 0-88.224l2.272-2.288c26.656 17.632 61.616 17.632 88.256 0l12.704 12.704 22.624-22.624-34.208-34.192-11.312 11.312c-18.72 18.72-49.168 18.72-67.888 0l-11.344-11.296zM47.431 38.063l22.627-22.627-33.941-33.941-22.627 22.627 33.941 33.941z"/>
<glyph unicode="" d="M512 128h-512v32h480v38.944l-72.24 43.344 16.48 27.424 87.76-52.656zM31.6 188.4l-31.2 7.2 50.88 220.4h281.552l39.12-176h-291.952v32h252.048l-24.88 112h-230.448zM384 32c-35.296 0-64 28.704-64 64h32c0-17.648 14.352-32 32-32s32 14.352 32 32h32c0-35.296-28.704-64-64-64zM112 32c-35.296 0-64 28.704-64 64h32c0-17.648 14.352-32 32-32s32 14.352 32 32h32c0-35.296-28.704-64-64-64z"/>
<glyph unicode="" d="M239.984 400h32v-320h-32v320zM271.984-32h-32c0 26.464-21.536 48-48 48h-176v32h176c44.112 0 80-35.888 80-80zM271.984-32h-32c0 44.112 35.888 80 80 80h176v-32h-176c-26.464 0-48-21.536-48-48zM208.448 80h-192.464v400h176c44.112 0 80-35.888 80-80h-32c0 26.464-21.536 48-48 48h-144v-336h160.464v-32zM495.984 80h-192.432v32h160.432v336h-144c-26.464 0-48-21.536-48-48h-32c0 44.112 35.888 80 80 80h176v-400z"/>
<glyph unicode="" d="M111.2 388.982l31.505-96.008-30.406-9.978-31.505 96.008 30.406 9.977zM207.701 388.981l31.505-96.008-30.406-9.978-31.505 96.008 30.406 9.977zM128 0c-52.944 0-96 43.056-96 96s43.056 96 96 96 96-43.056 96-96-43.056-96-96-96zM128 160c-35.296 0-64-28.704-64-64s28.704-64 64-64 64 28.704 64 64-28.704 64-64 64zM416 0c-52.944 0-96 43.056-96 96s43.056 96 96 96 96-43.056 96-96-43.056-96-96-96zM416 160c-35.296 0-64-28.704-64-64s28.704-64 64-64 64 28.704 64 64-28.704 64-64 64zM320 189.104l-320 53.344v205.552h512v-32h-480v-146.448l256-42.656v157.104h32zM512 192h-32v77.408l-27.536 82.592h-68.464v-96h64v-32h-96v160h123.536l36.464-109.408z"/>
<glyph unicode="" d="M95.184 32.032c-19.696 0-39.552 6.032-56.624 18.528-20.672 15.136-34.224 37.44-38.128 62.8-3.92 25.344 2.272 50.688 17.424 71.36 15.168 20.704 37.472 34.256 62.816 38.16l4.88-31.632c-16.896-2.608-31.76-11.648-41.872-25.44-10.096-13.776-14.224-30.688-11.616-47.584s11.632-31.76 25.408-41.856c28.496-20.848 68.608-14.672 89.456 13.776l25.808-18.912c-18.784-25.6-47.984-39.2-77.552-39.2zM416.592 31.968c-14.352 0-28.64 3.248-41.92 9.712-23.056 11.216-40.368 30.752-48.736 54.992-8.368 24.24-6.8 50.288 4.432 73.328l28.768-14c-7.488-15.376-8.528-32.736-2.96-48.896 5.584-16.16 17.12-29.168 32.512-36.64 15.376-7.488 32.752-8.512 48.896-2.96 16.16 5.6 29.184 17.136 36.656 32.512 7.488 15.376 8.528 32.72 2.944 48.88s-17.136 29.168-32.528 36.656l14 28.784c23.056-11.216 40.384-30.752 48.768-54.976 8.384-24.256 6.816-50.304-4.416-73.344-11.2-23.056-30.72-40.368-54.976-48.752-10.288-3.536-20.896-5.296-31.44-5.296zM384.094 308.221l47.998-176.010-30.873-8.419-47.998 176.010 30.873 8.419zM428.806 399.538l7.765-31.028-63.995-16.017-7.765 31.027 63.995 16.017zM238.036 335.793l5.267-31.565-96.005-16.020-5.267 31.565 96.005 16.020zM248.816 112.016h-184.128l-0.032 40 138.064 102.864 160.016 64 6.080-15.216 12.784-9.312-132.784-182.336zM107.328 144.016h125.216l90.752 124.608-106.72-42.672-109.248-81.936zM352.672 336.016h32v-48h-32v48z"/>
<glyph unicode="" d="M364.352 220.416c-28.672 0-57.36 10.928-79.184 32.752-21.152 21.136-32.816 49.264-32.816 79.168-0.016 29.936 11.648 58.064 32.816 79.232l45.248 45.248 22.624-22.624-45.248-45.248c-15.12-15.12-23.44-35.216-23.44-56.576s8.336-41.456 23.44-56.56c31.168-31.168 81.936-31.2 113.136 0l45.248 45.248 22.624-22.624-45.248-45.248c-21.824-21.84-50.512-32.768-79.2-32.768zM488.816 298.416l-33.936 33.936-11.312-11.312c-24.976-24.96-65.552-24.96-90.512 0-12.096 12.080-18.752 28.144-18.752 45.248 0 17.072 6.656 33.168 18.752 45.264l11.312 11.312-33.936 33.936 22.624 22.624 56.56-56.56-33.936-33.936c-6.048-6.064-9.376-14.096-9.376-22.64s3.328-16.576 9.376-22.608c6.048-6.064 14.080-9.392 22.624-9.392h0.016c8.544 0 16.576 3.328 22.624 9.376l33.936 33.936 56.56-56.56-22.624-22.624zM64.496 64.496h32v-32h-32v32zM233.085 262.012l63.465-62.75-22.499-22.755-63.464 62.75 22.499 22.755zM80-32c-21.376 0-41.472 8.336-56.56 23.44-15.104 15.088-23.44 35.184-23.44 56.56s8.336 41.472 23.44 56.56l1.968 1.664 161.408 116.128 18.688-25.968-160.288-115.328c-8.528-8.928-13.216-20.64-13.216-33.056 0-12.816 5.008-24.88 14.064-33.936 17.84-17.872 48.8-18.192 67.008-0.848l115.344 160.256 25.968-18.688-117.824-163.344c-15.088-15.104-35.184-23.44-56.56-23.44z"/>
<glyph unicode="" d="M512 16h-512v256h32v-224h448v224h32zM512 304h-512v128h512v-128zM32 336h448v64h-448v-64zM64 384h32v-32h-32v32zM112 384h32v-32h-32v32zM160 384h32v-32h-32v32zM192 80h-128v192h128v-192zM96 112h64v128h-64v-128zM448 80h-224v192h224v-192zM256 112h160v128h-160v-128z"/>
<glyph unicode="" d="M256 80c-79.408 0-144 64.592-144 144s64.592 144 144 144 144-64.592 144-144-64.592-144-144-144zM256 336c-61.744 0-112-50.256-112-112s50.256-112 112-112 112 50.256 112 112-50.256 112-112 112zM354.688 343.12l-27.248 40.88h-142.88l-27.248-40.88-26.624 17.76 36.752 55.12h177.12l36.752-55.12zM352 400h-32v48h-128v-48h-32v80h192zM344.576 32h-177.104l-36.752 55.152 26.624 17.76 27.248-40.912h142.864l27.248 40.912 26.624-17.76zM352.016-32h-191.984v80h32v-48h127.984v48h32zM336 208h-96v96h32v-64h64z"/>
<glyph unicode="" d="M320 2.848l-200.592 127.648 17.184 27.008 151.408-96.352v325.696l-151.408-96.352-17.184 27.008 200.592 127.648zM231.749 301.729l16.467-27.437-79.992-48.010-16.467 27.437 79.992 48.010zM96 128h-96v192h96v-192zM32 160h32v128h-32v-128zM352 128v32c35.296 0 64 28.704 64 64s-28.704 64-64 64v32c52.944 0 96-43.056 96-96s-43.056-96-96-96zM352 64v32c70.576 0 128 57.424 128 128s-57.424 128-128 128v32c88.224 0 160-71.776 160-160s-71.776-160-160-160zM352 192v64c17.648 0 32-14.352 32-32s-14.352-32-32-32z"/>
<glyph unicode="" d="M320 48h-320v256h223.456v-32h-191.456v-192h256v258.448l-178.352 29.776 5.264 31.552 205.088-34.224zM64 240h159.456v-32h-159.456v32zM512 43.504l-147.872 36.976 7.744 31.040 108.128-27.024v183.008l-108.128-27.024-7.744 31.040 147.872 36.976z"/>
<glyph unicode="" d="M192.016 192c-79.408 0-144.016 64.592-144.016 143.984 0 79.408 64.608 144.016 144.016 144.016 79.392 0 143.984-64.608 143.984-144.016 0-79.392-64.592-143.984-143.984-143.984zM192.016 448c-61.76 0-112.016-50.256-112.016-112.016 0-61.744 50.256-111.984 112.016-111.984 61.744 0 111.984 50.24 111.984 111.984 0 61.76-50.24 112.016-111.984 112.016zM368 192v32c44.112 0 80 35.888 80 79.984 0 44.112-35.888 80-80 80v32.016c61.76 0 112-50.256 112-112 0-61.76-50.24-112-112-112zM512 0h-96v32h59.104l-11.872 83.152-51.216 13.76 7.968 30.992 71.904-19.056zM386-32h-388l19.744 166.752 75.456 24.464 9.872-30.432-55.968-18.144-13.104-110.64h316l-13.104 110.64-55.968 18.144 9.872 30.432 75.456-24.464z"/>
<glyph unicode="" d="M252.448 192c-79.392 0-144 64.608-144 144s64.608 144 144 144c79.392 0 143.984-64.608 143.984-144s-64.592-144-143.984-144zM252.448 448c-61.76 0-112-50.24-112-112s50.24-112 112-112c61.744 0 111.984 50.24 111.984 112s-50.224 112-111.984 112zM465.872-32h-419.744l19.024 171.296 88.896 35.568 11.904-29.728-71.104-28.432-12.976-116.704h348.256l-12.976 116.704-71.104 28.432 11.904 29.728 88.896-35.568z"/>
<glyph unicode="" d="M335.936 80v32c79.392 0 144 64.592 144 144 0 79.008-63.952 143.344-142.8 144-74.832-0.624-138.544-57.712-145.328-130.48-0.224-2.512-0.096-5.072 0-7.664 0.064-1.936 0.128-3.872 0.128-5.84h-32c0 1.584-0.064 3.136-0.112 4.704-0.144 3.952-0.24 7.872 0.128 11.76 8.24 88.688 85.312 158.304 175.984 159.52v0l2.416-0.016c95.936-1.296 173.584-79.728 173.584-175.984 0-97.040-78.96-176-176-176zM255.952 256h-32c0 2.304-0.080 4.592-0.16 6.88l-0.24 2.16 0.144 1.536c5.104 55.184 55.92 100.704 113.248 101.424l0.4-32c-40.96-0.512-77.264-32.224-81.664-70.976 0.192-3.616 0.272-6.32 0.272-9.024zM176 80h-47.92c-70.592 0-128.016 57.424-128.016 128s57.424 128 128 128v-32c-52.944 0-96-43.056-96-96s43.072-96 96.016-96h47.92v-32zM239.936 160h32v-128h-32v128zM293.024 100.336l-37.072 34.912-36.96-34.88-21.984 23.264 58.912 55.616 59.056-55.584z"/>
<glyph unicode="" d="M144 240c-26.464 0-48 21.536-48 48s21.536 48 48 48 48-21.536 48-48-21.536-48-48-48zM144 304c-8.816 0-16-7.184-16-16s7.184-16 16-16 16 7.184 16 16-7.184 16-16 16zM256 240c-26.464 0-48 21.536-48 48s21.536 48 48 48 48-21.536 48-48-21.536-48-48-48zM256 304c-8.816 0-16-7.184-16-16s7.184-16 16-16 16 7.184 16 16-7.184 16-16 16zM368 240c-26.464 0-48 21.536-48 48s21.536 48 48 48 48-21.536 48-48-21.536-48-48-48zM368 304c-8.816 0-16-7.184-16-16s7.184-16 16-16 16 7.184 16 16-7.184 16-16 16zM0-23.024v471.024h512v-336h-368v32h336v272h-448v-344.976l51.328 66.72 25.344-19.488z"/>
<glyph unicode="" d="M64 368c0 0 0 0 0 0-12.832 0-24.896 4.992-33.952 14.064l-22.624 22.624 67.872 67.872 22.624-22.624c9.088-9.056 14.080-21.12 14.080-33.968 0-12.816-5.008-24.88-14.096-33.936-9.024-9.040-21.088-14.032-33.904-14.032zM52.672 404.688c3.024-3.024 7.040-4.688 11.328-4.688v0c4.272 0 8.288 1.664 11.296 4.672 3.040 3.040 4.704 7.040 4.704 11.296 0 4.288-1.664 8.32-4.688 11.328v0.016l-22.64-22.624zM97.719 404.874l101.244-97.644-22.215-23.034-101.244 97.644 22.215 23.034zM351.743 154.472l87.431-87.432-22.627-22.627-87.431 87.431 22.627 22.627zM427.872-24.224c-20.432 0-40.864 7.76-56.416 23.312l-97.344 97.344 22.624 22.624 97.344-97.344c18.672-18.656 49.056-18.592 67.776 0.112 18.704 18.704 18.672 49.2-0.096 67.984l-97.152 97.136 22.624 22.624 97.152-97.136c31.248-31.28 31.28-82.064 0.096-113.248-15.616-15.584-36.128-23.408-56.608-23.408zM376.256 232.224v0c-29.92 0.016-58.032 11.664-79.2 32.832-21.168 21.136-32.816 49.264-32.816 79.168 0 29.936 11.648 58.064 32.816 79.216l29.248 29.248 22.624-22.624-29.248-29.248c-15.12-15.12-23.456-35.216-23.44-56.576 0-21.36 8.336-41.456 23.44-56.56s35.2-23.456 56.56-23.456v0c21.36 0 41.44 8.336 56.56 23.456l29.248 29.248 22.624-22.624-29.248-29.248c-21.136-21.184-49.264-32.832-79.168-32.832zM484.688 294.304l-33.936 33.936-11.312-11.312c-12.080-12.096-28.144-18.752-45.248-18.752h-0.016c-17.088 0.016-33.168 6.672-45.248 18.752s-18.736 28.144-18.736 45.248c0 17.072 6.656 33.168 18.736 45.264l11.328 11.312-33.936 33.936 22.624 22.624 56.56-56.56-33.936-33.936c-6.048-6.064-9.376-14.096-9.376-22.64s3.328-16.576 9.376-22.608c6.032-6.064 14.064-9.392 22.624-9.392 0 0 0 0 0 0 8.544 0 16.576 3.328 22.624 9.376l33.952 33.936 56.56-56.56-22.64-22.624zM64.496 64.496h32v-32h-32v32zM233.087 273.894l63.464-62.75-22.499-22.755-63.464 62.75 22.499 22.755zM80-32c-21.36 0-41.456 8.32-56.576 23.44-15.088 15.088-23.424 35.184-23.424 56.56s8.336 41.472 23.44 56.56l1.904 1.632 165.536 120.256 18.816-25.872-164.448-119.488c-8.56-8.944-13.248-20.656-13.248-33.088 0-12.816 4.992-24.88 14.064-33.936 17.856-17.872 48.832-18.192 67.024-0.816l119.488 164.4 25.888-18.816-121.888-167.392c-15.104-15.104-35.2-23.44-56.576-23.44z"/>
<glyph unicode="" d="M256-22.624l-246.624 246.624 219.312 219.312 22.624-22.624-196.688-196.688 201.376-201.376 196.688 196.688 22.624-22.624zM512 240h-32v208h-208v32h240zM352.032 240h-0.496c-44.112 0.288-79.776 36.368-79.536 80.464 0.256 43.856 36.128 79.536 79.968 79.536 44.608-0.288 80.288-36.368 80.032-80.464-0.256-43.856-36.128-79.536-79.968-79.536zM352.288 368c-26.624 0-48.128-21.408-48.288-47.712-0.16-26.464 21.248-48.128 47.712-48.288l0.32-16v16c26.304 0 47.808 21.408 47.968 47.712 0.16 26.48-21.248 48.128-47.712 48.288z"/>
<glyph unicode="" d="M240 416h32v-64h-32v64zM384 240h64v-32h-64v32zM64 240h64v-32h-64v32zM131.562 371.093l45.255-45.255-22.627-22.627-45.255 45.255 22.627 22.627zM380.598 371.187l22.406-22.845-141.569-138.852-22.406 22.845 141.569 138.852zM256-32c-141.152 0-256 114.848-256 256s114.848 256 256 256c62.144 0 121.984-22.496 168.48-63.344l-21.12-24.032c-40.656 35.712-92.992 55.376-147.36 55.376-123.52 0-224-100.48-224-224s100.48-224 224-224 224 100.48 224 224c0 54.352-19.664 106.688-55.376 147.376l24.032 21.088c40.848-46.496 63.344-106.32 63.344-168.464 0-141.152-114.848-256-256-256zM174.848 67.216l-27.136 16.944c23.392 37.472 63.888 59.84 108.288 59.84 44.432 0 84.928-22.368 108.304-59.84l-27.152-16.944c-17.488 28.032-47.824 44.784-81.152 44.784-33.296 0-63.632-16.752-81.152-44.784z"/>
<glyph unicode="" d="M80 144c-44.112 0-80 35.888-80 80s35.888 80 80 80 80-35.888 80-80-35.888-80-80-80zM80 272c-26.464 0-48-21.536-48-48s21.536-48 48-48 48 21.536 48 48-21.536 48-48 48zM432 304c-44.112 0-80 35.888-80 80s35.888 80 80 80 80-35.888 80-80-35.888-80-80-80zM432 432c-26.464 0-48-21.536-48-48s21.536-48 48-48 48 21.536 48 48-21.536 48-48 48zM432-16c-44.112 0-80 35.888-80 80s35.888 80 80 80 80-35.888 80-80-35.888-80-80-80zM432 112c-26.464 0-48-21.536-48-48s21.536-48 48-48 48 21.536 48 48-21.536 48-48 48zM312.842 350.318l14.31-28.621-127.992-63.996-14.31 28.621 127.992 63.996zM199.157 190.322l127.992-63.996-14.31-28.621-127.992 63.996 14.31 28.621z"/>
<glyph unicode="" d="M255.696 144.016h-0.288c-21.36 0.080-41.424 8.464-56.496 23.632-15.056 15.168-23.312 35.28-23.232 56.64 0.16 43.968 36.048 79.728 80 79.728 21.664-0.080 41.728-8.464 56.784-23.648 15.040-15.152 23.296-35.264 23.216-56.624-0.144-43.968-36.032-79.728-79.984-79.728zM255.872 272.016c-26.56 0-48.080-21.456-48.176-47.824-0.048-12.832 4.912-24.912 13.952-34 9.024-9.088 21.072-14.128 33.888-14.176l0.176-16v16c26.368 0 47.888 21.456 47.984 47.824 0.048 12.848-4.896 24.912-13.936 34s-21.072 14.128-33.888 14.176zM309.808-32.192l-101.744 0.368-19.68 74.608c-19.504 6.8-37.568 16.544-53.888 29.104l-71.936-19.040-50.576 88.304 50.576 49.728c-2.016 11.488-3.024 22.848-2.976 33.856 0.016 8.88 0.736 17.968 2.096 27.152l-56.832 57.184 51.216 87.936 77.68-21.536c16.496 12.88 34.704 22.816 54.336 29.664l1.648 13.008 31.744-4.032-4.272-33.568-10.112-2.928c-21.856-6.304-41.792-17.040-59.264-31.936l-6.448-5.488-70.048 19.408-26.432-45.376 51.296-51.632-1.616-8.32c-1.952-10.064-2.96-20.032-2.976-29.664-0.048-11.488 1.28-23.472 3.968-35.664l1.904-8.64-45.456-44.672 26.112-45.584 64.032 16.96 6.368-5.344c16.928-14.256 36.336-24.688 57.648-31.008l8.624-2.56 17.952-68.032 52.512-0.192 19.456 73.008 7.344 3.008c15.616 6.4 30.16 15.312 43.248 26.448l6.464 5.52 70.080-19.424 26.416 45.392-51.264 51.568 1.6 8.32c1.936 10.096 2.944 20.112 2.992 29.744 0.016 7.088-0.56 14.496-1.84 23.296l-1.168 8.016 58.512 57.536-26.080 45.568-76.656-20.272-6.416 5.712c-13.632 12.144-28.736 21.696-44.944 28.432l-7.312 3.024-19.264 73.12-80.864 0.24 0.096 32 105.456-0.336 21.536-81.776c14.144-6.608 27.536-15.024 39.936-25.152l84 22.224 50.544-88.288-64.672-63.6c0.784-7.056 1.152-13.632 1.12-19.872-0.048-8.928-0.768-18.032-2.128-27.2l56.832-57.168-51.2-87.952-77.696 21.552c-11.744-9.152-24.4-16.88-37.792-23.024l-21.792-81.728z"/>
<glyph unicode="" d="M208 64c-114.688 0-208 93.312-208 208s93.312 208 208 208 208-93.312 208-208-93.312-208-208-208zM208 448c-97.040 0-176-78.96-176-176s78.96-176 176-176 176 78.96 176 176-78.96 176-176 176zM464.016-32c-12.304 0-24.576 4.672-33.936 14.032l-89.216 86.48 22.288 22.976 89.392-86.656c6.4-6.416 16.576-6.4 22.8-0.176 2.992 3.008 4.656 7.040 4.656 11.344s-1.664 8.304-4.672 11.312l-86.816 89.568 22.976 22.272 86.64-89.376c8.88-8.88 13.872-20.944 13.872-33.776s-4.992-24.896-14.032-33.952c-9.376-9.376-21.648-14.048-33.952-14.048zM117.568 181.536c-49.904 49.888-49.904 131.072 0 181.008l22.624-22.624c-37.424-37.44-37.424-98.336 0-135.744l-22.624-22.64z"/>
<glyph unicode="" d="M446.064 366.064v0c-12.832 0-24.88 5.008-33.952 14.064-9.040 9.040-14.032 21.088-14.048 33.92 0 12.832 5.008 24.896 14.064 33.952l22.624 22.624 67.872-67.872-22.624-22.624c-9.056-9.072-21.104-14.064-33.936-14.064zM434.752 425.376c-3.008-3.024-4.688-7.024-4.688-11.312s1.664-8.304 4.688-11.312c6.064-6.064 16.576-6.064 22.608 0h0.016l-22.624 22.624zM412.127 402.745l22.627-22.627-167.442-167.441-22.627 22.627 167.441 167.441zM188.132 178.748l22.627-22.627-119.438-119.438-22.627 22.627 119.437 119.438zM80-32c-21.376 0-41.44 8.32-56.512 23.392-15.12 15.104-23.456 35.168-23.488 56.48-0.016 21.36 8.272 41.44 23.376 56.528l145.344 145.344 22.624-22.624-145.344-145.344c-9.040-9.040-14.016-21.056-14-33.84 0.016-12.816 5.024-24.848 14.112-33.904 18.72-18.72 49.216-18.688 67.984 0.096l145.136 145.12 22.624-22.624-145.136-145.136c-15.12-15.12-35.216-23.456-56.608-23.488-0.032 0-0.080 0-0.112 0zM219.312 300.467l113.136-113.136-22.627-22.627-113.136 113.136 22.627 22.627z"/>
<glyph unicode="" d="M176 208c-44.112 0-80 35.872-80 79.968 0 44.128 35.888 80.032 80 80.032s80-35.904 80-80.032c0-44.096-35.888-79.968-80-79.968zM176 336c-26.464 0-48-21.552-48-48.032 0-26.448 21.536-47.968 48-47.968s48 21.52 48 47.968c0 26.48-21.536 48.032-48 48.032zM256.208 77.408l-14.176 86.448-39.056 12.928 10.048 30.368 57.44-19.008 17.312-105.552zM95.792 77.408l-31.584 5.184 17.328 105.552 57.44 19.008 10.048-30.368-39.056-12.928zM320 336h64v-32h-64v32zM320 272h128v-32h-128v32zM320 208h128v-32h-128v32zM320 144h128v-32h-128v32zM176 48h160v-32h-160v32zM512 16h-144v32h112v352h-448v-352h112v-32h-144v416h512z"/>
<glyph unicode="" d="M301.465 479.525l5.094-31.593-96.013-15.482-5.095 31.594 96.013 15.482zM434.88 48h-357.76l34.88 209.84c0.736 78.512 65.040 142.16 144 142.16s143.264-63.568 144-142l34.88-210zM114.88 80h282.24l-29.12 176.656c0 61.392-50.256 111.344-112 111.344s-112-50.032-112-111.52l-0.224-2.624-28.896-173.856zM191.856 125.904l-31.712 4.192 15.856 126.24c0 43.936 35.888 79.664 80 79.664v-32c-26.464 0-48-21.376-48-47.664l-0.144-9.264-16-121.168zM256-32c-26.464 0-48 21.536-48 48h32c0-8.816 7.168-16 16-16s16 7.184 16 16h32c0-26.464-21.536-48-48-48z"/>
<glyph unicode="" d="M480-32h-448v416h32v-384h384v448h-320v32h352zM112 128h288v-32h-288v32zM112 64h288v-32h-288v32zM256 288c-35.296 0-64 28.688-64 63.968 0 35.312 28.704 64.032 64 64.032s64-28.72 64-64.032c0-35.28-28.704-63.968-64-63.968zM256 384c-17.648 0-32-14.368-32-32.032 0-17.632 14.352-31.968 32-31.968s32 14.336 32 31.968c0 17.664-14.352 32.032-32 32.032zM355.424 160h-198.752l21.296 111.984 40.464 15.008 11.136-30-23.536-8.72-10.704-56.272h121.248l-10.672 54.8-24.256 10.528 12.704 29.344 39.744-17.2z"/>
<glyph unicode="" d="M256.16-31.648c-66.464 0-132.544 25.488-181.68 74.624-94.144 94.144-101.040 242.224-16.080 344.464l24.624-20.432c-74.336-89.472-68.304-219.024 14.064-301.392 73.6-73.616 190.656-86.576 278.336-30.864l17.152-27.008c-41.648-26.464-89.136-39.376-136.416-39.392zM96 304h-32v64h-64v32h96zM453.584 60.56l-24.592 20.464c74.336 89.44 68.304 219.008-14.080 301.36-73.616 73.6-190.64 86.56-278.336 30.864l-17.152 27.008c100.224 63.664 234.016 48.848 318.112-35.232 94.128-94.144 101.024-242.224 16.048-344.464zM512 48h-96v96h32v-64h64z"/>
<glyph unicode="" d="M256-32c-123.52 0-224 100.48-224 224 0 92.336 55.376 174.016 141.056 208.064l11.808-29.712c-73.408-29.2-120.864-99.2-120.864-178.352 0-105.872 86.128-192 192-192s192 86.128 192 192c0 79.136-47.456 149.136-120.88 178.336l11.808 29.712c85.696-34.048 141.072-115.712 141.072-208.048 0-123.52-100.48-224-224-224zM255.984 271.968v0c-12.832 0-24.896 5.008-33.968 14.096-9.056 9.088-14.032 21.136-14.016 33.936v111.968c-0.016 12.8 4.976 24.864 14.048 33.936s21.12 14.096 33.936 14.096c26.48 0 48.016-21.536 48.016-48v-112c0-26.448-21.552-48-48.016-48.032zM256 448c-4.272 0-8.288-1.68-11.312-4.72s-4.688-7.024-4.688-11.28v-112c0-4.288 1.664-8.288 4.672-11.312 3.024-3.024 7.024-4.72 11.296-4.72 8.848 0.016 16.032 7.2 16.032 16.032v112c0 8.816-7.168 16-16 16z"/>
<glyph unicode="" d="M131.44 173.984c-68.432 69.856-68.432 183.52 0 253.376 33.264 33.952 77.504 52.64 124.56 52.64 0.016 0 0.016 0 0.016 0 47.056 0 91.296-18.704 124.544-52.656 68.416-69.856 68.416-183.52 0.016-253.376l-22.88 22.384c56.336 57.504 56.336 151.088 0 208.592-27.168 27.776-63.296 43.056-101.68 43.056h-0.016c-38.384 0-74.512-15.296-101.712-43.040-56.336-57.504-56.336-151.088 0-208.592l-22.848-22.384zM256-30.192l-93.568 149.712 27.136 16.96 66.432-106.288 66.432 106.288 27.136-16.96zM256 208c-52.944 0-96 43.056-96 96s43.056 96 96 96 96-43.056 96-96-43.056-96-96-96zM256 368c-35.296 0-64-28.704-64-64s28.704-64 64-64 64 28.704 64 64-28.704 64-64 64z"/>
<glyph unicode="" d="M512 16h-512v416h512v-416zM32 48h448v352h-448v-352zM324.208 69.184l-164.688 179.664-83.728-84.144-22.688 22.592 107.376 107.856 187.312-204.336zM436.688 116.688l-68.256 68.24-60.16-64.976-23.472 21.744 82.768 89.376 91.744-91.76zM288 240c-26.464 0-48 21.536-48 48s21.536 48 48 48c26.464 0 48-21.536 48-48s-21.536-48-48-48zM288 304c-8.816 0-15.984-7.184-15.984-16s7.168-16 15.984-16c8.832 0 16 7.184 16 16s-7.168 16-16 16z"/>
<glyph unicode="" d="M256-32c-105.872 0-192 86.128-192 192v96h384v-96c0-105.872-86.144-192-192-192zM96 224v-64c0-88.224 71.776-160 160-160s160 71.776 160 160v64h-320zM256 48c-26.336 0-47.776 21.312-48 47.6v32.4c0 26.464 21.536 48 48 48s48-21.536 48-48v-32.4c-0.224-26.288-21.68-47.6-48-47.6zM256 144c-8.816 0-16-7.184-16-16v-32c0-8.816 7.184-16 16-16s16 7.184 16 16v32c0 8.816-7.184 16-16 16zM143.536 278.976c-35.296 49.424-28.448 117.744 16.272 162.464 49.872 49.904 129.504 51.504 177.472 3.568l48.816-48.816-22.624-22.624-48.816 48.816c-35.488 35.472-94.8 33.872-132.224-3.568-33.616-33.616-39.008-84.592-12.848-121.248l-26.048-18.592z"/>
<glyph unicode="" d="M128 48h-96v96h96v-96zM64 80h32v32h-32v-32zM128 176h-96v96h96v-96zM64 208h32v32h-32v-32zM480-32h-416v47.136h32v-15.136h352v448h-352v-15.76h-32v47.76h416zM128 304h-96v96h96v-96zM64 336h32v32h-32v-32zM352 448h32v-448h-32v448z"/>
<glyph unicode="" d="M320 2.56l-200.704 130.112 17.408 26.848 151.296-98.080v325.408l-151.408-96.352-17.184 27.008 200.592 127.648zM231.749 301.729l16.467-27.437-79.992-48.010-16.467 27.437 79.992 48.010zM96 128h-96v192h96v-192zM32 160h32v128h-32v-128zM379.311 299.32l128.002-128.002-22.627-22.627-128.002 128.002 22.627 22.627zM484.686 299.32l22.627-22.627-128.002-128.002-22.627 22.627 128.002 128.002z"/>
<glyph unicode="" d="M512 16h-512v416h512v-416zM32 48h448v352h-448v-352zM432 304h-96v64h32v-32h32v32h32zM304 304h-96v64h32v-32h32v32h32zM176 304h-96v64h32v-32h32v32h32zM176 80h-32v32h-32v-32h-32v64h96zM304 80h-32v32h-32v-32h-32v64h96zM432 80h-32v32h-32v-32h-32v64h96z"/>
<glyph unicode="" d="M256 31.968c-105.872 0-192 86.432-192 192.672h32c0-88.592 71.776-160.672 160-160.672s160 71.488 160 159.344h32c0-105.504-86.128-191.344-192-191.344zM274.24 98.080l-4.464 31.68c46.88 6.608 82.24 47.392 82.24 94.88v128c0 47.456-35.36 88.256-82.24 94.88l4.464 31.68c62.576-8.848 109.76-63.248 109.76-126.56v-128c0-63.328-47.184-117.728-109.76-126.56zM237.76 98.080c-62.576 8.832-109.76 63.232-109.76 126.56v128c0 63.312 47.184 117.712 109.76 126.56l4.464-31.68c-46.864-6.624-82.224-47.424-82.224-94.88v-128c0-47.472 35.36-88.272 82.24-94.88l-4.48-31.68zM240 416.64h32v-256h-32v256zM320 384.64h32v-32h-32v32zM320 304.64h32v-32h-32v32zM320 224.64h32v-32h-32v32zM160 384.64h32v-32h-32v32zM160 304.64h32v-32h-32v32zM160 224.64h32v-32h-32v32zM176 0.64h160v-32h-160v32z"/>
<glyph unicode="" d="M0-23.024v471.024h512v-336h-336v32h304v272h-448v-344.976l51.312 66.72 25.36-19.488zM96 336h320v-32h-320v32zM96 255.504h224v-32h-224v32z"/>
<glyph unicode="" d="M512 160h-160v32h128v192h-256v-15.712h-32v47.712h320zM352.432 336.256h96v-32h-96v32zM352 271.936h96.432v-32h-96.432v32zM64 256h192v-32h-192v32zM64 191.68h128v-32h-128v32zM0-16v352h320v-256h-208v32h176v192h-256v-224l19.2 25.6 25.6-19.2z"/>
<glyph unicode="" d="M256 256h192v-32h-192v32zM256 191.68h128v-32h-128v32zM160 160h-160v256h320v-47.744h-32v15.744h-256v-192h128zM63.536 336.256h96v-32h-96v32zM63.536 271.936h96.464v-32h-96.464v32zM192-16v352h320v-256h-208v32h176v192h-256v-224l19.2 25.6 25.6-19.2z"/>
<glyph unicode="" d="M96 304h320v-32h-320v32zM96 240h320v-32h-320v32zM96 176h320v-32h-320v32zM512 16h-512v352h32v-320h448v352h-480v32h512z"/>
<glyph unicode="" d="M512 16h-512v416h512v-416zM32 48h448v352h-448v-352zM192 134.112v179.776l179.776-89.888-179.776-89.888zM224 262.112v-76.224l76.224 38.112-76.224 38.112z"/>
<glyph unicode="" d="M512 16h-512v416h512v-416zM32 48h448v352h-448v-352zM146.303 280.232l27.437-16.467-96.020-159.984-27.437 16.467 96.020 159.984zM256 206.112l-199.152 99.568 14.304 28.64 184.848-92.432 184.848 92.432 14.304-28.64zM365.719 280.228l96.002-160.002-27.44-16.464-96.002 160.002 27.44 16.464z"/>
<glyph unicode="" d="M48 304c-26.464 0-48 21.536-48 48s21.536 48 48 48 48-21.536 48-48-21.536-48-48-48zM48 368c-8.816 0-16-7.184-16-16s7.184-16 16-16 16 7.184 16 16-7.184 16-16 16zM48 176c-26.464 0-48 21.536-48 48s21.536 48 48 48 48-21.536 48-48-21.536-48-48-48zM48 240c-8.816 0-16-7.184-16-16s7.184-16 16-16 16 7.184 16 16-7.184 16-16 16zM48 48c-26.464 0-48 21.536-48 48s21.536 48 48 48 48-21.536 48-48-21.536-48-48-48zM48 112c-8.816 0-16-7.184-16-16s7.184-16 16-16 16 7.184 16 16-7.184 16-16 16zM512 304h-384v32h352v32h-352v32h384zM512 176h-384v32h352v32h-352v32h384zM512 48h-384v32h352v32h-352v32h384z"/>
<glyph unicode="" d="M256 177.824l-241.744 130.176 241.744 130.176 241.744-130.176-241.744-130.176zM81.744 308l174.256-93.824 174.256 93.824-174.256 93.824-174.256-93.824zM256 100.256l-231.040 113.376 14.080 28.736 216.96-106.496 216.96 106.496 14.080-28.736zM256 18.192l-231.040 113.376 14.080 28.752 216.96-106.512 216.96 106.512 14.080-28.752z"/>
<glyph unicode="" d="M144-32h-144v102.288l180.208 196.528 23.584-21.632-171.792-187.344v-57.84h80v64h72.608l91.248 106.4 24.288-20.8-100.816-117.6h-55.328zM352 160v32c70.576 0 128 57.424 128 128s-57.424 128-128 128-128-57.424-128-128h-32c0 88.224 71.776 160 160 160s160-71.776 160-160-71.776-160-160-160zM352 256c-35.296 0-64 28.72-64 64s28.704 64 64 64 64-28.72 64-64-28.704-64-64-64zM352 352c-17.648 0-32-14.336-32-32s14.352-32 32-32 32 14.336 32 32-14.352 32-32 32z"/>
<glyph unicode="" d="M512-32h-512v400h32v-368h448v368h32zM146.304 232.232l27.437-16.467-96.020-159.984-27.437 16.467 96.020 159.984zM256 158.112l-199.152 99.568 14.304 28.64 184.848-92.432 184.848 92.432 14.304-28.64zM365.719 232.228l96.002-160.002-27.44-16.464-96.002 160.002 27.44 16.464zM448 304h-32v144h-320v-144h-32v176h384zM128 416h112v-32h-112v32zM128 352h224v-32h-224v32z"/>
</font>
</defs>
</svg>
